<?xml version="1.0" encoding="UTF-8" standalone="no"?>
<svg width="1920px" height="731px" viewBox="0 0 1920 731" version="1.1" xmlns="http://www.w3.org/2000/svg" xmlns:xlink="http://www.w3.org/1999/xlink" xmlns:sketch="http://www.bohemiancoding.com/sketch/ns">
    <!-- Generator: Sketch 3.5.1 (25234) - http://www.bohemiancoding.com/sketch -->
    <title>Group 13</title>
    <desc>Created with Sketch.</desc>
    <defs>
        <path id="path-1" d="M0,0.733 L408.838,0.733 L408.838,82 L0,82 L0,0.733 Z"></path>
        <path id="path-3" d="M0,0.733 L408.838,0.733 L408.838,82 L0,82 L0,0.733 Z"></path>
        <path id="path-5" d="M0,0.733 L408.838,0.733 L408.838,82 L0,82 L0,0.733 Z"></path>
        <path id="path-7" d="M0,0.733 L408.838,0.733 L408.838,82 L0,82 L0,0.733 Z"></path>
    </defs>
    <g id="Page-4" stroke="none" stroke-width="1" fill="none" fill-rule="evenodd" sketch:type="MSPage">
        <g id="Desktop-HD-Copy-19" sketch:type="MSArtboardGroup" transform="translate(0.000000, -1453.000000)">
            <g id="Group-13" sketch:type="MSLayerGroup" transform="translate(-8.000000, 1453.000000)">
                <rect id="Rectangle-184" fill="#F5F5F5" sketch:type="MSShapeGroup" x="0" y="0" width="1937" height="731"></rect>
                <g id="Group-5" transform="translate(719.000000, 104.000000)">
                    <g id="Group" transform="translate(46.000000, 197.000000)">
                        <g id="Group-16">
                            <g id="Group-3">
                                <mask id="mask-2" sketch:name="Clip 2" fill="white">
                                    <use xlink:href="#path-1"></use>
                                </mask>
                                <g id="Clip-2"></g>
                                <path d="M10.7683,68.5572 C13.3083,70.6742 19.5533,75.0142 27.9153,75.0142 C36.8063,75.0142 43.0513,70.0392 43.0513,62.3122 C43.0513,43.5782 6.0053,48.0232 6.0053,24.9492 C6.0053,12.7772 16.2723,5.0502 29.2913,5.0502 C38.1823,5.0502 44.6383,8.7552 47.3903,10.8712 L43.3683,16.7992 C40.7223,15.0002 35.8543,12.0362 29.0793,12.0362 C20.6123,12.0362 13.5203,16.6932 13.5203,24.5262 C13.5203,42.4142 50.5653,37.6512 50.5653,61.5712 C50.5653,73.0032 42.0983,82.0002 27.9153,82.0002 C17.0133,82.0002 9.1813,76.7072 6.1113,74.1672 L10.7683,68.5572 Z" id="Fill-1" fill="#CCCCCC" sketch:type="MSShapeGroup" mask="url(#mask-2)"></path>
                            </g>
                            <path d="M98.723,75.1196 C116.187,75.1196 128.994,61.1486 128.994,43.0486 C128.994,25.3726 116.187,11.9306 98.723,11.9306 C81.364,11.9306 68.451,25.3726 68.451,43.0486 C68.451,61.1486 81.364,75.1196 98.723,75.1196 M98.723,5.0506 C120.527,5.0506 136.615,21.6686 136.615,43.0486 C136.615,64.8526 120.527,81.9996 98.723,81.9996 C77.024,81.9996 60.831,64.8526 60.831,43.0486 C60.831,21.6686 77.024,5.0506 98.723,5.0506" id="Fill-4" fill="#CCCCCC" sketch:type="MSShapeGroup"></path>
                            <g id="Group-8">
                                <mask id="mask-4" sketch:name="Clip 7" fill="white">
                                    <use xlink:href="#path-3"></use>
                                </mask>
                                <g id="Clip-7"></g>
                                <path d="M151.3244,6.3205 L158.7334,6.3205 L158.7334,54.6915 C158.7334,67.4985 166.9894,75.1195 179.7964,75.1195 C192.6034,75.1195 200.9654,67.4985 200.9654,54.4805 L200.9654,6.3205 L208.2694,6.3205 L208.2694,54.7975 C208.2694,71.3095 196.7314,82.0005 179.9024,82.0005 C162.9664,82.0005 151.3244,71.3095 151.3244,54.7975 L151.3244,6.3205 Z" id="Fill-6" fill="#CCCCCC" sketch:type="MSShapeGroup" mask="url(#mask-4)"></path>
                            </g>
                            <path d="M253.0385,42.8371 C262.0355,42.8371 267.7515,36.5921 267.7515,27.2781 C267.7515,21.3511 264.8935,16.4821 259.9185,14.2591 C257.8025,13.3061 255.5795,12.8831 250.1815,12.8831 L235.3625,12.8831 L235.3625,42.8371 L253.0385,42.8371 Z M228.0595,8.9671 C228.0595,7.2731 228.9065,6.3201 230.6005,6.3201 L250.7105,6.3201 C257.6955,6.3201 261.2955,7.0621 264.2585,8.4381 C270.9275,11.6131 275.2665,18.0691 275.2665,27.0661 C275.2665,37.1211 269.5505,45.2721 261.1895,47.6001 L261.1895,47.8121 C261.1895,47.8121 261.9305,48.7641 263.0935,50.7761 L279.2485,80.7301 L270.9745,80.7301 L254.0975,49.3991 L235.3625,49.3991 L235.3625,80.7301 L228.0595,80.7301 L228.0595,8.9671 Z" id="Fill-9" fill="#CCCCCC" sketch:type="MSShapeGroup"></path>
                            <path d="M324.9055,5.0505 C338.1365,5.0505 346.4985,10.3425 349.8855,12.9895 L345.7575,18.4935 C342.5815,16.2705 335.3845,11.9305 325.1175,11.9305 C307.0175,11.9305 295.1625,25.4795 295.1625,42.9435 C295.1625,60.6195 307.0175,75.1195 325.4355,75.1195 C336.5485,75.1195 344.2755,69.7215 347.5565,67.0755 L351.8965,72.2625 C348.4035,75.2255 339.1945,81.9995 325.2235,81.9995 C302.5725,81.9995 287.5425,64.7475 287.5425,43.0485 C287.5425,21.4565 302.9955,5.0505 324.9055,5.0505" id="Fill-11" fill="#CCCCCC" sketch:type="MSShapeGroup"></path>
                            <g id="Group-15">
                                <mask id="mask-6" sketch:name="Clip 14" fill="white">
                                    <use xlink:href="#path-5"></use>
                                </mask>
                                <g id="Clip-14"></g>
                                <path d="M367.6641,8.9667 C367.6641,7.2737 368.5111,6.3207 370.2051,6.3207 L406.9331,6.3207 L406.9331,12.8827 L374.9681,12.8827 L374.9681,39.9797 L400.5821,39.9797 L400.5821,46.5417 L374.9681,46.5417 L374.9681,74.1677 L408.8381,74.1677 L408.8381,80.7297 L370.2051,80.7297 C368.5111,80.7297 367.6641,79.7767 367.6641,78.0837 L367.6641,8.9667 Z" id="Fill-13" fill="#CCCCCC" sketch:type="MSShapeGroup" mask="url(#mask-6)"></path>
                            </g>
                        </g>
                        <g id="Group-19">
                            <mask id="mask-8" sketch:name="Clip 18" fill="white">
                                <use xlink:href="#path-7"></use>
                            </mask>
                            <g id="Clip-18"></g>
                            <path d="M4.7629,64.2396 C7.3029,66.3566 13.5479,70.6966 21.9099,70.6966 C30.8009,70.6966 37.0459,65.7216 37.0459,57.9946 C37.0459,39.2606 -0.0001,43.7056 -0.0001,20.6316 C-0.0001,8.4596 10.2669,0.7326 23.2859,0.7326 C32.1769,0.7326 38.6329,4.4376 41.3849,6.5536 L37.3629,12.4816 C34.7169,10.6826 29.8489,7.7186 23.0739,7.7186 C14.6069,7.7186 7.5149,12.3756 7.5149,20.2086 C7.5149,38.0966 44.5609,33.3336 44.5609,57.2536 C44.5609,68.6856 36.0929,77.6826 21.9099,77.6826 C11.0079,77.6826 3.1759,72.3896 0.1059,69.8496 L4.7629,64.2396 Z" id="Fill-17" fill="#000000" sketch:type="MSShapeGroup" mask="url(#mask-8)"></path>
                        </g>
                        <path d="M92.7176,70.802 C110.1816,70.802 122.9896,56.831 122.9896,38.731 C122.9896,21.055 110.1816,7.613 92.7176,7.613 C75.3586,7.613 62.4456,21.055 62.4456,38.731 C62.4456,56.831 75.3586,70.802 92.7176,70.802 M92.7176,0.733 C114.5216,0.733 130.6096,17.351 130.6096,38.731 C130.6096,60.535 114.5216,77.682 92.7176,77.682 C71.0186,77.682 54.8256,60.535 54.8256,38.731 C54.8256,17.351 71.0186,0.733 92.7176,0.733" id="Fill-20" fill="#000000" sketch:type="MSShapeGroup"></path>
                        <path d="M145.319,2.0029 L152.728,2.0029 L152.728,50.3739 C152.728,63.1809 160.984,70.8019 173.791,70.8019 C186.598,70.8019 194.96,63.1809 194.96,50.1629 L194.96,2.0029 L202.264,2.0029 L202.264,50.4799 C202.264,66.9919 190.726,77.6829 173.897,77.6829 C156.962,77.6829 145.319,66.9919 145.319,50.4799 L145.319,2.0029 Z" id="Fill-22" fill="#000000" sketch:type="MSShapeGroup"></path>
                        <path d="M247.0335,38.5195 C256.0305,38.5195 261.7465,32.2755 261.7465,22.9605 C261.7465,17.0335 258.8885,12.1645 253.9135,9.9415 C251.7965,8.9885 249.5735,8.5655 244.1765,8.5655 L229.3575,8.5655 L229.3575,38.5195 L247.0335,38.5195 Z M222.0545,4.6495 C222.0545,2.9555 222.9005,2.0025 224.5945,2.0025 L244.7055,2.0025 C251.6905,2.0025 255.2895,2.7445 258.2535,4.1205 C264.9215,7.2955 269.2615,13.7515 269.2615,22.7485 C269.2615,32.8035 263.5455,40.9545 255.1835,43.2825 L255.1835,43.4945 C255.1835,43.4945 255.9245,44.4465 257.0885,46.4585 L273.2435,76.4125 L264.9695,76.4125 L248.0925,45.0815 L229.3575,45.0815 L229.3575,76.4125 L222.0545,76.4125 L222.0545,4.6495 Z" id="Fill-24" fill="#000000" sketch:type="MSShapeGroup"></path>
                        <path d="M318.9005,0.7329 C332.1315,0.7329 340.4925,6.0249 343.8795,8.6719 L339.7515,14.1759 C336.5765,11.9529 329.3795,7.6129 319.1125,7.6129 C301.0125,7.6129 289.1575,21.1619 289.1575,38.6259 C289.1575,56.3019 301.0125,70.8019 319.4295,70.8019 C330.5425,70.8019 338.2695,65.4039 341.5515,62.7579 L345.8905,67.9449 C342.3985,70.9079 333.1895,77.6819 319.2175,77.6819 C296.5675,77.6819 281.5375,60.4299 281.5375,38.7309 C281.5375,17.1389 296.9905,0.7329 318.9005,0.7329" id="Fill-26" fill="#000000" sketch:type="MSShapeGroup"></path>
                        <path d="M361.6591,4.6491 C361.6591,2.9561 362.5061,2.0031 364.1991,2.0031 L400.9271,2.0031 L400.9271,8.5651 L368.9621,8.5651 L368.9621,35.6621 L394.5771,35.6621 L394.5771,42.2241 L368.9621,42.2241 L368.9621,69.8501 L402.8331,69.8501 L402.8331,76.4121 L364.1991,76.4121 C362.5061,76.4121 361.6591,75.4591 361.6591,73.7661 L361.6591,4.6491 Z" id="Fill-29" fill="#000000" sketch:type="MSShapeGroup"></path>
                    </g>
                    <path d="M48.15083,65.9647052 C48.15083,65.9647052 56.2891414,75.2361992 71.1235318,75.2361992 C84.721723,75.2361992 93.0660676,66.4797882 93.0660676,55.6630452 C93.0660676,31.8662106 56.907241,36.8110074 56.907241,19.6072352 C56.907241,13.220206 62.8822038,7.1422266 72.1536978,7.1422266 C81.631225,7.1422266 88.0182542,13.3232226 88.0182542,13.3232226 L91.5208186,7.3482598 C91.5208186,7.3482598 84.721723,0.343131 72.1536978,0.343131 C58.7615398,0.343131 49.5930624,9.4085918 49.5930624,19.8132684 C49.5930624,42.2708872 85.751889,37.6351402 85.751889,55.8690784 C85.751889,63.69834 79.2618432,68.4371036 71.329565,68.4371036 C59.8947224,68.4371036 52.3745106,60.5048254 52.3745106,60.5048254 L48.15083,65.9647052 Z M103.985827,37.3260904 C103.985827,58.54751 120.365467,75.2361992 140.86577,75.2361992 C161.366073,75.2361992 177.745713,58.54751 177.745713,37.3260904 C177.745713,16.5167372 161.366073,0.343131 140.86577,0.343131 C120.365467,0.343131 103.985827,16.5167372 103.985827,37.3260904 L103.985827,37.3260904 Z M111.403022,37.3260904 C111.403022,20.0193016 124.486131,6.9361934 140.86577,6.9361934 C157.142393,6.9361934 170.328518,20.0193016 170.328518,37.3260904 C170.328518,55.0449456 157.142393,68.6431368 140.86577,68.6431368 C124.486131,68.6431368 111.403022,55.0449456 111.403022,37.3260904 L111.403022,37.3260904 Z M192.889153,48.760933 C192.889153,64.8315226 204.220979,75.2361992 220.703635,75.2361992 C237.083274,75.2361992 248.312084,64.8315226 248.312084,48.760933 L248.312084,1.5793302 L241.203938,1.5793302 L241.203938,48.4518832 C241.203938,61.122925 233.065627,68.6431368 220.600618,68.6431368 C208.13561,68.6431368 200.100315,61.122925 200.100315,48.6579164 L200.100315,1.5793302 L192.889153,1.5793302 L192.889153,48.760933 Z M268.400321,74 L275.508466,74 L275.508466,43.5070864 L293.742404,43.5070864 L310.122044,74 L318.260355,74 L302.498815,44.8463022 C301.365633,42.8889868 300.644517,41.9618374 300.644517,41.9618374 L300.644517,41.7558042 C308.782828,39.489439 314.345724,31.9692272 314.345724,22.1826502 C314.345724,13.4262392 310.22506,6.524127 303.425965,3.5366456 C300.5415,2.3004464 297.244969,1.5793302 289.827774,1.5793302 L268.400321,1.5793302 L268.400321,74 Z M275.508466,37.1200572 L275.508466,7.9663594 L290.136823,7.9663594 C295.69972,7.9663594 298.275135,8.584459 300.438483,9.7176416 C304.662164,11.9840068 307.031546,16.4137206 307.031546,22.3886834 C307.031546,31.4541442 301.468649,37.1200572 292.712238,37.1200572 L275.508466,37.1200572 Z M328.252965,37.3260904 C328.252965,58.4444934 343.499422,75.2361992 364.926875,75.2361992 C382.748747,75.2361992 392.63834,64.0073898 392.63834,64.0073898 L388.517676,58.9595764 C388.517676,58.9595764 379.658249,68.6431368 365.029892,68.6431368 C347.826119,68.6431368 335.670161,54.5298626 335.670161,37.2230738 C335.670161,20.1223182 347.826119,6.9361934 364.823858,6.9361934 C378.42205,6.9361934 386.869411,14.9714882 386.869411,14.9714882 L390.681025,9.7176416 C390.681025,9.7176416 381.924614,0.343131 364.617825,0.343131 C343.911489,0.343131 328.252965,16.310704 328.252965,37.3260904 L328.252965,37.3260904 Z M408.09083,74 L450.739703,74 L450.739703,67.6129708 L415.198976,67.6129708 L415.198976,40.7256382 L442.704408,40.7256382 L442.704408,34.338609 L415.198976,34.338609 L415.198976,7.9663594 L448.885404,7.9663594 L448.885404,1.5793302 L408.09083,1.5793302 L408.09083,74 Z" id="SOURCE" fill="#000000" sketch:type="MSShapeGroup"></path>
                    <g id="Group-4" transform="translate(0.000000, 375.000000)" sketch:type="MSShapeGroup">
                        <path d="M48.15083,100.964705 C48.15083,100.964705 56.2891414,110.236199 71.1235318,110.236199 C84.721723,110.236199 93.0660676,101.479788 93.0660676,90.6630452 C93.0660676,66.8662106 56.907241,71.8110074 56.907241,54.6072352 C56.907241,48.220206 62.8822038,42.1422266 72.1536978,42.1422266 C81.631225,42.1422266 88.0182542,48.3232226 88.0182542,48.3232226 L91.5208186,42.3482598 C91.5208186,42.3482598 84.721723,35.343131 72.1536978,35.343131 C58.7615398,35.343131 49.5930624,44.4085918 49.5930624,54.8132684 C49.5930624,77.2708872 85.751889,72.6351402 85.751889,90.8690784 C85.751889,98.69834 79.2618432,103.437104 71.329565,103.437104 C59.8947224,103.437104 52.3745106,95.5048254 52.3745106,95.5048254 L48.15083,100.964705 Z M103.985827,72.3260904 C103.985827,93.54751 120.365467,110.236199 140.86577,110.236199 C161.366073,110.236199 177.745713,93.54751 177.745713,72.3260904 C177.745713,51.5167372 161.366073,35.343131 140.86577,35.343131 C120.365467,35.343131 103.985827,51.5167372 103.985827,72.3260904 L103.985827,72.3260904 Z M111.403022,72.3260904 C111.403022,55.0193016 124.486131,41.9361934 140.86577,41.9361934 C157.142393,41.9361934 170.328518,55.0193016 170.328518,72.3260904 C170.328518,90.0449456 157.142393,103.643137 140.86577,103.643137 C124.486131,103.643137 111.403022,90.0449456 111.403022,72.3260904 L111.403022,72.3260904 Z M192.889153,83.760933 C192.889153,99.8315226 204.220979,110.236199 220.703635,110.236199 C237.083274,110.236199 248.312084,99.8315226 248.312084,83.760933 L248.312084,36.5793302 L241.203938,36.5793302 L241.203938,83.4518832 C241.203938,96.122925 233.065627,103.643137 220.600618,103.643137 C208.13561,103.643137 200.100315,96.122925 200.100315,83.6579164 L200.100315,36.5793302 L192.889153,36.5793302 L192.889153,83.760933 Z M268.400321,109 L275.508466,109 L275.508466,78.5070864 L293.742404,78.5070864 L310.122044,109 L318.260355,109 L302.498815,79.8463022 C301.365633,77.8889868 300.644517,76.9618374 300.644517,76.9618374 L300.644517,76.7558042 C308.782828,74.489439 314.345724,66.9692272 314.345724,57.1826502 C314.345724,48.4262392 310.22506,41.524127 303.425965,38.5366456 C300.5415,37.3004464 297.244969,36.5793302 289.827774,36.5793302 L268.400321,36.5793302 L268.400321,109 Z M275.508466,72.1200572 L275.508466,42.9663594 L290.136823,42.9663594 C295.69972,42.9663594 298.275135,43.584459 300.438483,44.7176416 C304.662164,46.9840068 307.031546,51.4137206 307.031546,57.3886834 C307.031546,66.4541442 301.468649,72.1200572 292.712238,72.1200572 L275.508466,72.1200572 Z M328.252965,72.3260904 C328.252965,93.4444934 343.499422,110.236199 364.926875,110.236199 C382.748747,110.236199 392.63834,99.0073898 392.63834,99.0073898 L388.517676,93.9595764 C388.517676,93.9595764 379.658249,103.643137 365.029892,103.643137 C347.826119,103.643137 335.670161,89.5298626 335.670161,72.2230738 C335.670161,55.1223182 347.826119,41.9361934 364.823858,41.9361934 C378.42205,41.9361934 386.869411,49.9714882 386.869411,49.9714882 L390.681025,44.7176416 C390.681025,44.7176416 381.924614,35.343131 364.617825,35.343131 C343.911489,35.343131 328.252965,51.310704 328.252965,72.3260904 L328.252965,72.3260904 Z M408.09083,109 L450.739703,109 L450.739703,102.612971 L415.198976,102.612971 L415.198976,75.7256382 L442.704408,75.7256382 L442.704408,69.338609 L415.198976,69.338609 L415.198976,42.9663594 L448.885404,42.9663594 L448.885404,36.5793302 L408.09083,36.5793302 L408.09083,109 Z" id="SOURCE-Copy" fill="#000000"></path>
                        <rect id="Rectangle-176" stroke="#000000" stroke-width="8" x="0" y="0" width="500" height="148"></rect>
                    </g>
                </g>
            </g>
        </g>
    </g>
</svg>