<?xml version="1.0" encoding="UTF-8" standalone="no"?>
<svg width="1920px" height="546px" viewBox="0 0 1920 546" version="1.1" xmlns="http://www.w3.org/2000/svg" xmlns:xlink="http://www.w3.org/1999/xlink" xmlns:sketch="http://www.bohemiancoding.com/sketch/ns">
    <!-- Generator: Sketch 3.5.1 (25234) - http://www.bohemiancoding.com/sketch -->
    <title>Group 11</title>
    <desc>Created with Sketch.</desc>
    <defs>
        <path id="path-1" d="M0,0.111233333 L212.888767,0.111233333 L212.888767,213 L0,213"></path>
        <path id="path-3" d="M0,1.1741405 L211.82586,1.1741405 L211.82586,213 L0,213"></path>
        <path id="path-5" d="M0,0 L213,0 L213,213 L0,213"></path>
        <path id="path-7" d="M106.5,0.000768953069 C47.6820108,0.000768953069 0,47.6820108 0,106.5 L0,106.5 C0,165.318758 47.6820108,213 106.5,213 L106.5,213 C165.317989,213 213,165.318758 213,106.5 L213,106.5 C213,47.6820108 165.317989,0.000768953069 106.5,0.000768953069 L106.5,0.000768953069 Z"></path>
        <path id="path-9" d="M106.5,0.000768953069 C47.6820108,0.000768953069 0,47.6820108 0,106.5 L0,106.5 C0,165.318758 47.6820108,213 106.5,213 L106.5,213 C165.317989,213 213,165.318758 213,106.5 L213,106.5 C213,47.6820108 165.317989,0.000768953069 106.5,0.000768953069 L106.5,0.000768953069 Z"></path>
        <path id="path-11" d="M106.5,0.000768953069 C47.6820108,0.000768953069 0,47.6820108 0,106.5 L0,106.5 C0,165.318758 47.6820108,213 106.5,213 L106.5,213 C165.317989,213 213,165.318758 213,106.5 L213,106.5 C213,47.6820108 165.317989,0.000768953069 106.5,0.000768953069 L106.5,0.000768953069 Z"></path>
        <path id="path-13" d="M106.5,0.000768953069 C47.6820108,0.000768953069 0,47.6820108 0,106.5 L0,106.5 C0,165.318758 47.6820108,213 106.5,213 L106.5,213 C165.317989,213 213,165.318758 213,106.5 L213,106.5 C213,47.6820108 165.317989,0.000768953069 106.5,0.000768953069 L106.5,0.000768953069 Z"></path>
        <path id="path-15" d="M106.5,0.000768953069 C47.6820108,0.000768953069 0,47.6820108 0,106.5 L0,106.5 C0,165.318758 47.6820108,213 106.5,213 L106.5,213 C165.317989,213 213,165.318758 213,106.5 L213,106.5 C213,47.6820108 165.317989,0.000768953069 106.5,0.000768953069 L106.5,0.000768953069 Z"></path>
        <path id="path-17" d="M106.5,0.000768953069 C47.6820108,0.000768953069 0,47.6820108 0,106.5 L0,106.5 C0,165.318758 47.6820108,213 106.5,213 L106.5,213 C165.317989,213 213,165.318758 213,106.5 L213,106.5 C213,47.6820108 165.317989,0.000768953069 106.5,0.000768953069"></path>
        <path id="path-19" d="M106.5,0.000768953069 C47.6820108,0.000768953069 0,47.6820108 0,106.5 L0,106.5 C0,165.318758 47.6820108,213 106.5,213 L106.5,213 C165.317989,213 213,165.318758 213,106.5 L213,106.5 C213,47.6820108 165.317989,0.000768953069 106.5,0.000768953069 L106.5,0.000768953069 Z"></path>
        <path id="path-21" d="M106.5,0.000768953069 C47.6820108,0.000768953069 0,47.6820108 0,106.5 L0,106.5 C0,165.318758 47.6820108,213 106.5,213 L106.5,213 C165.317989,213 213,165.318758 213,106.5 L213,106.5 C213,47.6820108 165.317989,0.000768953069 106.5,0.000768953069"></path>
        <path id="path-23" d="M106.5,0.000768953069 C47.6820108,0.000768953069 0,47.6820108 0,106.5 L0,106.5 C0,165.318758 47.6820108,213 106.5,213 L106.5,213 C165.317989,213 213,165.318758 213,106.5 L213,106.5 C213,47.6820108 165.317989,0.000768953069 106.5,0.000768953069 L106.5,0.000768953069 Z"></path>
        <path id="path-25" d="M106.5,0.000768953069 C47.6820108,0.000768953069 0,47.6820108 0,106.5 L0,106.5 C0,165.318758 47.6820108,213 106.5,213 L106.5,213 C165.317989,213 213,165.318758 213,106.5 L213,106.5 C213,47.6820108 165.317989,0.000768953069 106.5,0.000768953069 L106.5,0.000768953069 Z"></path>
        <path id="path-27" d="M106.5,0.000768953069 C47.6820108,0.000768953069 0,47.6820108 0,106.5 L0,106.5 C0,165.318758 47.6820108,213 106.5,213 L106.5,213 C165.317989,213 213,165.318758 213,106.5 L213,106.5 C213,47.6820108 165.317989,0.000768953069 106.5,0.000768953069"></path>
        <path id="path-29" d="M106.5,0.000768953069 C47.6820108,0.000768953069 0,47.6820108 0,106.5 L0,106.5 C0,165.318758 47.6820108,213 106.5,213 L106.5,213 C165.317989,213 213,165.318758 213,106.5 L213,106.5 C213,47.6820108 165.317989,0.000768953069 106.5,0.000768953069"></path>
        <path id="path-31" d="M106.5,0.000768953069 C47.6820108,0.000768953069 0,47.6820108 0,106.5 L0,106.5 C0,165.318758 47.6820108,213 106.5,213 L106.5,213 C165.317989,213 213,165.318758 213,106.5 L213,106.5 C213,47.6820108 165.317989,0.000768953069 106.5,0.000768953069 L106.5,0.000768953069 Z"></path>
        <path id="path-33" d="M106.5,0.000768953069 C47.6820108,0.000768953069 0,47.6820108 0,106.5 L0,106.5 C0,165.318758 47.6820108,213 106.5,213 L106.5,213 C165.317989,213 213,165.318758 213,106.5 L213,106.5 C213,47.6820108 165.317989,0.000768953069 106.5,0.000768953069 L106.5,0.000768953069 Z"></path>
        <path id="path-35" d="M106.5,0.000768953069 C47.6820108,0.000768953069 0,47.6820108 0,106.5 L0,106.5 C0,165.318758 47.6820108,213 106.5,213 L106.5,213 C165.317989,213 213,165.318758 213,106.5 L213,106.5 C213,47.6820108 165.317989,0.000768953069 106.5,0.000768953069 L106.5,0.000768953069 Z"></path>
        <path id="path-37" d="M0,0.812555556 L212.187444,0.812555556 L212.187444,213 L0,213"></path>
    </defs>
    <g id="Page-4" stroke="none" stroke-width="1" fill="none" fill-rule="evenodd" sketch:type="MSPage">
        <g id="Desktop-HD-Copy-19" sketch:type="MSArtboardGroup" transform="translate(0.000000, -3003.000000)">
            <g id="Group-11" sketch:type="MSLayerGroup" transform="translate(-9.000000, 3003.000000)">
                <rect id="Rectangle-184-Copy" fill="#F5F5F5" sketch:type="MSShapeGroup" x="0" y="0" width="1937" height="546"></rect>
                <g id="Page-1" transform="translate(187.000000, 173.000000)">
                    <g id="Group-3">
                        <mask id="mask-2" sketch:name="Clip 2" fill="white">
                            <use xlink:href="#path-1"></use>
                        </mask>
                        <g id="Clip-2"></g>
                        <path d="M212.888293,106.555853 C212.888293,165.343853 165.230727,212.999053 106.445093,212.999053 C47.6570933,212.999053 -0.000473333333,165.343853 -0.000473333333,106.555853 C-0.000473333333,47.7678533 47.6570933,0.112653333 106.445093,0.112653333 C165.230727,0.112653333 212.888293,47.7678533 212.888293,106.555853" id="Fill-1" fill="#000000" sketch:type="MSShapeGroup" mask="url(#mask-2)"></path>
                    </g>
                    <path d="M194.396107,112.972597 C194.396107,154.751363 160.529107,188.618363 118.75034,188.618363 C76.9715733,188.618363 43.1045733,154.751363 43.1045733,112.972597 C43.1045733,71.19383 76.9715733,37.32683 118.75034,37.32683 C160.529107,37.32683 194.396107,71.19383 194.396107,112.972597" id="Fill-4" fill="#666666" sketch:type="MSShapeGroup"></path>
                    <path d="M173.49773,133.50627 C173.49773,153.346037 157.413863,169.429903 137.574097,169.429903 C117.731963,169.429903 101.648097,153.346037 101.648097,133.50627 C101.648097,113.666503 117.731963,97.58027 137.574097,97.58027 C157.413863,97.58027 173.49773,113.666503 173.49773,133.50627" id="Fill-6" fill="#FFFFFF" sketch:type="MSShapeGroup"></path>
                </g>
                <g id="Page-1" transform="translate(524.000000, 172.000000)">
                    <g id="Group-3">
                        <mask id="mask-4" sketch:name="Clip 2" fill="white">
                            <use xlink:href="#path-3"></use>
                        </mask>
                        <g id="Clip-2"></g>
                        <path d="M211.826564,107.086718 C211.826564,165.580743 164.406779,213.000528 105.912754,213.000528 C47.4187289,213.000528 0.000704132231,165.580743 0.000704132231,107.086718 C0.000704132231,48.5926934 47.4187289,1.17290826 105.912754,1.17290826 C164.406779,1.17290826 211.826564,48.5926934 211.826564,107.086718" id="Fill-1" fill="#000000" sketch:type="MSShapeGroup" mask="url(#mask-4)"></path>
                    </g>
                    <path d="M82.0998818,182.371128 L136.328626,138.544178 L135.481907,135.248839 L90.9015347,135.248839 L82.0998818,182.371128 Z" id="Fill-4" fill="#A59D67" sketch:type="MSShapeGroup"></path>
                    <path d="M149.551877,107.086718 C149.551877,131.187404 130.013968,150.725313 105.913282,150.725313 C81.8125959,150.725313 62.2746868,131.187404 62.2746868,107.086718 C62.2746868,82.9860322 81.8125959,63.4481231 105.913282,63.4481231 C130.013968,63.4481231 149.551877,82.9860322 149.551877,107.086718" id="Fill-6" fill="#F4F0AB" sketch:type="MSShapeGroup"></path>
                    <path d="M131.724129,30.1426686 L77.4953851,73.969619 L78.3421041,77.2649579 L122.922476,77.2649579 L131.724129,30.1426686 Z" id="Fill-8" fill="#F4F0AB" sketch:type="MSShapeGroup"></path>
                </g>
                <g id="Page-1" transform="translate(861.000000, 173.000000)">
                    <g id="Group-3">
                        <mask id="mask-6" sketch:name="Clip 2" fill="white">
                            <use xlink:href="#path-5"></use>
                        </mask>
                        <g id="Clip-2"></g>
                        <path d="M213.000154,106.499923 C213.000154,165.318681 165.318143,212.999923 106.500154,212.999923 C47.6821646,212.999923 0.000153790614,165.318681 0.000153790614,106.499923 C0.000153790614,47.6819339 47.6821646,-7.68953068e-05 106.500154,-7.68953068e-05 C165.318143,-7.68953068e-05 213.000154,47.6819339 213.000154,106.499923" id="Fill-1" fill="#000000" sketch:type="MSShapeGroup" mask="url(#mask-6)"></path>
                    </g>
                    <g id="Group-49">
                        <g id="Group-6">
                            <mask id="mask-8" sketch:name="Clip 5" fill="white">
                                <use xlink:href="#path-7"></use>
                            </mask>
                            <g id="Clip-5"></g>
                            <path d="M125.573112,1.70330794 L32.2529675,53.9344451 L91.5400181,20.7518134 L91.5400181,72.9598819 L98.9496498,75.3374848 L121.460751,62.7381888 L121.460751,4.00555343 L125.573112,1.70330794 L125.573112,1.70330794 Z" id="Fill-4" fill="#666666" sketch:type="MSShapeGroup" mask="url(#mask-8)"></path>
                        </g>
                        <g id="Group-9">
                            <mask id="mask-10" sketch:name="Clip 8" fill="white">
                                <use xlink:href="#path-9"></use>
                            </mask>
                            <g id="Clip-8"></g>
                            <path d="M114.365467,139.017103 L91.5398643,151.792489 L91.5398643,210.525125 L180.747648,160.595464 L121.460597,193.778865 L121.460597,141.293973 L114.365467,139.017103 Z" id="Fill-7" fill="#808080" sketch:type="MSShapeGroup" mask="url(#mask-10)"></path>
                        </g>
                        <g id="Group-12">
                            <mask id="mask-12" sketch:name="Clip 11" fill="white">
                                <use xlink:href="#path-11"></use>
                            </mask>
                            <g id="Clip-11"></g>
                            <path d="M98.9496498,75.3374079 L91.5400181,79.4843718 L91.5400181,131.69244 L114.365621,139.016718 L121.460751,135.045845 L121.460751,82.5609531 L98.9496498,75.3374079 Z" id="Fill-10" fill="#808080" sketch:type="MSShapeGroup" mask="url(#mask-12)"></path>
                        </g>
                        <g id="Group-15">
                            <mask id="mask-14" sketch:name="Clip 14" fill="white">
                                <use xlink:href="#path-13"></use>
                            </mask>
                            <g id="Clip-14"></g>
                            <path d="M91.5399412,72.9595744 L91.5399412,79.4849101 L98.9495729,75.3371773 L91.5399412,72.9595744 Z" id="Fill-13" fill="#B3B3B3" sketch:type="MSShapeGroup" mask="url(#mask-14)"></path>
                        </g>
                        <g id="Group-18">
                            <mask id="mask-16" sketch:name="Clip 17" fill="white">
                                <use xlink:href="#path-15"></use>
                            </mask>
                            <g id="Clip-17"></g>
                            <path d="M121.46052,135.045999 L114.36539,139.016872 L121.46052,141.293742 L121.46052,135.045999 Z" id="Fill-16" fill="#C0C0C0" sketch:type="MSShapeGroup" mask="url(#mask-16)"></path>
                        </g>
                        <g id="Group-21">
                            <mask id="mask-18" sketch:name="Clip 20" fill="white">
                                <use xlink:href="#path-17"></use>
                            </mask>
                            <g id="Clip-20"></g>
                            <path d="M32.2529675,112.667619 L32.2529675,112.667619 L32.2529675,182.852272 C32.7158773,183.30211 33.1841697,183.74964 33.654769,184.191019 L91.5400181,151.79272 L91.5400181,131.692287 L32.2529675,112.667619 M91.5400181,210.525355 L89.5230542,211.654178 L89.5230542,211.654178 L91.5400181,210.525355" id="Fill-19" fill="#666666" sketch:type="MSShapeGroup" mask="url(#mask-18)"></path>
                        </g>
                        <g id="Group-24">
                            <mask id="mask-20" sketch:name="Clip 23" fill="white">
                                <use xlink:href="#path-19"></use>
                            </mask>
                            <g id="Clip-23"></g>
                            <path d="M91.5399412,20.752044 L32.2528906,53.9346758 L91.5399412,72.9593437 L91.5399412,20.752044 Z" id="Fill-22" fill="#A3A3A3" sketch:type="MSShapeGroup" mask="url(#mask-20)"></path>
                        </g>
                        <g id="Group-27">
                            <mask id="mask-22" sketch:name="Clip 26" fill="white">
                                <use xlink:href="#path-21"></use>
                            </mask>
                            <g id="Clip-26"></g>
                            <path d="M91.5399412,151.792566 L33.6546921,184.190866 C48.7984538,198.396505 68.0891794,208.221418 89.5229773,211.654025 L91.5399412,210.525201 L91.5399412,151.792566" id="Fill-25" fill="#B3B3B3" sketch:type="MSShapeGroup" mask="url(#mask-22)"></path>
                        </g>
                        <g id="Group-30">
                            <mask id="mask-24" sketch:name="Clip 29" fill="white">
                                <use xlink:href="#path-23"></use>
                            </mask>
                            <g id="Clip-29"></g>
                            <path d="M91.5399412,79.4846025 L32.2528906,112.667234 L91.5399412,131.692671 L91.5399412,79.4846025 Z" id="Fill-28" fill="#B3B3B3" sketch:type="MSShapeGroup" mask="url(#mask-24)"></path>
                        </g>
                        <g id="Group-33">
                            <mask id="mask-26" sketch:name="Clip 32" fill="white">
                                <use xlink:href="#path-25"></use>
                            </mask>
                            <g id="Clip-32"></g>
                            <path d="M32.2529675,53.9346758 L32.2529675,53.9346758 L32.2529675,112.667311 L91.5400181,79.4846794 L91.5400181,72.9593437 L32.2529675,53.9346758 Z" id="Fill-31" fill="#D1D1D1" sketch:type="MSShapeGroup" mask="url(#mask-26)"></path>
                        </g>
                        <g id="Group-36">
                            <mask id="mask-28" sketch:name="Clip 35" fill="white">
                                <use xlink:href="#path-27"></use>
                            </mask>
                            <g id="Clip-35"></g>
                            <path d="M180.359096,29.7725556 L121.460366,62.7383426 L121.460366,82.5611838 L180.747417,101.585852 L180.747417,160.318487 L180.747417,160.596079 L180.747417,30.1485736 C180.619002,30.0232343 180.48828,29.897126 180.359096,29.7725556" id="Fill-34" fill="#666666" sketch:type="MSShapeGroup" mask="url(#mask-28)"></path>
                        </g>
                        <g id="Group-39">
                            <mask id="mask-30" sketch:name="Clip 38" fill="white">
                                <use xlink:href="#path-29"></use>
                            </mask>
                            <g id="Clip-38"></g>
                            <path d="M125.573419,1.70330794 L121.46029,4.00555343 L121.46029,62.7381888 L180.359019,29.7724018 C165.558979,15.5221635 146.643503,5.51423935 125.573419,1.70330794" id="Fill-37" fill="#A3A3A3" sketch:type="MSShapeGroup" mask="url(#mask-30)"></path>
                        </g>
                        <g id="Group-42">
                            <mask id="mask-32" sketch:name="Clip 41" fill="white">
                                <use xlink:href="#path-31"></use>
                            </mask>
                            <g id="Clip-41"></g>
                            <path d="M121.46052,141.293819 L121.46052,193.778711 L180.747571,160.596079 L180.747571,160.318487 L121.46052,141.293819 Z" id="Fill-40" fill="#B3B3B3" sketch:type="MSShapeGroup" mask="url(#mask-32)"></path>
                        </g>
                        <g id="Group-45">
                            <mask id="mask-34" sketch:name="Clip 44" fill="white">
                                <use xlink:href="#path-33"></use>
                            </mask>
                            <g id="Clip-44"></g>
                            <path d="M121.46052,82.5611069 L121.46052,135.045999 L180.747571,101.862598 L180.747571,160.31841 L180.747571,101.585775 L121.46052,82.5611069 Z" id="Fill-43" fill="#B3B3B3" sketch:type="MSShapeGroup" mask="url(#mask-34)"></path>
                        </g>
                        <g id="Group-48">
                            <mask id="mask-36" sketch:name="Clip 47" fill="white">
                                <use xlink:href="#path-35"></use>
                            </mask>
                            <g id="Clip-47"></g>
                            <path d="M180.747417,101.862905 L121.460366,135.046306 L121.460366,141.29405 L180.747417,160.318718 L180.747417,101.862905 Z" id="Fill-46" fill="#D9D9D9" sketch:type="MSShapeGroup" mask="url(#mask-36)"></path>
                        </g>
                    </g>
                </g>
                <g id="Page-1" transform="translate(1198.000000, 172.000000)">
                    <g id="Group-3">
                        <mask id="mask-38" sketch:name="Clip 2" fill="white">
                            <use xlink:href="#path-37"></use>
                        </mask>
                        <g id="Clip-2"></g>
                        <path d="M212.187247,106.906475 C212.187247,165.501197 164.688247,213.000197 106.093525,213.000197 C47.500775,213.000197 -0.000197222222,165.501197 -0.000197222222,106.906475 C-0.000197222222,48.3117528 47.500775,0.812752778 106.093525,0.812752778 C164.688247,0.812752778 212.187247,48.3117528 212.187247,106.906475" id="Fill-1" fill="#DDDDDD" sketch:type="MSShapeGroup" mask="url(#mask-38)"></path>
                    </g>
                    <path d="M133.099558,4.28465278 C133.099558,4.28465278 88.3123639,15.5302639 76.3330861,55.6472361 C64.3538083,95.7622361 102.407836,142.649847 103.159253,168.655569 C103.912642,194.661292 88.0086417,211.462653 88.0086417,211.462653 C88.0086417,211.462653 126.705614,195.266764 138.008419,162.206403 C154.723003,113.315014 122.546197,94.509875 117.532808,63.5854306 C111.811392,28.3004028 133.099558,4.28465278 133.099558,4.28465278" id="Fill-4" fill="#555555" sketch:type="MSShapeGroup"></path>
                    <path d="M116.697572,169.764353 C72.1549333,169.764353 36.0455167,133.656908 36.0455167,89.1142694 C36.0455167,44.5716306 72.1549333,8.46418611 116.697572,8.46418611 C161.238239,8.46418611 197.347656,44.5716306 197.347656,89.1142694 C197.347656,133.656908 161.238239,169.764353 116.697572,169.764353 Z" id="Fill-8" opacity="0.418376866" fill="#FFFFFF" sketch:type="MSShapeGroup"></path>
                    <path d="M133.099558,4.28465278 C133.099558,4.28465278 88.3123639,15.5302639 76.3330861,55.6472361 C64.3538083,95.7622361 102.407836,142.649847 103.159253,168.655569 C103.912642,194.661292 88.0086417,211.462653 88.0086417,211.462653 C88.0086417,211.462653 119.234836,197.726125 128.429336,164.016903 C139.130614,124.773625 110.042308,101.891903 107.533642,66.2321528 C105.026947,30.574375 133.099558,4.28465278 133.099558,4.28465278" id="Fill-6" fill="#406B89" sketch:type="MSShapeGroup"></path>
                    <path d="M177.882019,63.83255 C177.882019,71.5636611 171.614297,77.8313833 163.883186,77.8313833 C156.152075,77.8313833 149.884353,71.5636611 149.884353,63.83255 C149.884353,56.1014389 156.152075,49.8337167 163.883186,49.8337167 C171.614297,49.8337167 177.882019,56.1014389 177.882019,63.83255" id="Fill-10" fill="#FFFFFF" sketch:type="MSShapeGroup"></path>
                </g>
                <g id="Page-1" transform="translate(1580.000000, 173.000000)" sketch:type="MSShapeGroup">
                    <path d="M133.180821,146.40959 C133.180821,183.18661 103.366697,213.000734 66.5911448,213.000734 C29.8141241,213.000734 0,183.18661 0,146.40959 C0,109.632569 29.8141241,79.8184448 66.5911448,79.8184448 C103.366697,79.8184448 133.180821,109.632569 133.180821,146.40959" id="Fill-1" fill="#A43F3F"></path>
                    <path d="M133.180821,66.9200462 C133.180821,103.697067 103.366697,133.509722 66.5911448,133.509722 C29.8141241,133.509722 0,103.697067 0,66.9200462 C0,30.1430255 29.8141241,0.330370345 66.5911448,0.330370345 C103.366697,0.330370345 133.180821,30.1430255 133.180821,66.9200462" id="Fill-4" fill="#A43F3F"></path>
                    <path d="M121.940884,144.02399 C121.914443,143.387928 121.880657,142.754803 121.832181,142.124617 C121.830712,142.109928 121.829243,142.093769 121.827774,142.079079 C121.779298,141.459176 121.71907,140.845148 121.650029,140.23259 C121.63387,140.085693 121.617712,139.940266 121.600084,139.793369 C121.526636,139.169059 121.444374,138.544748 121.348891,137.926314 C121.345953,137.904279 121.341546,137.883714 121.338608,137.861679 C121.244594,137.259403 121.138829,136.660066 121.027188,136.062197 C121.000746,135.92999 120.975774,135.797783 120.950801,135.665576 C120.828877,135.04861 120.699608,134.433114 120.558588,133.823493 C120.554181,133.804397 120.549774,133.786769 120.545367,133.769141 C120.405815,133.171272 120.254512,132.579279 120.095863,131.990224 C120.065015,131.877114 120.035636,131.764003 120.003319,131.650893 C119.835857,131.039803 119.659581,130.433121 119.471553,129.832314 C119.467146,129.819093 119.462739,129.807341 119.458332,129.794121 C119.273243,129.203597 119.076401,128.617479 118.870746,128.035769 C118.838429,127.941755 118.806112,127.847741 118.772326,127.753728 C118.557857,127.152921 118.333105,126.555052 118.09807,125.963059 C118.096601,125.960121 118.095132,125.955714 118.093663,125.952776 C117.861567,125.366659 117.61625,124.786417 117.363588,124.210583 C117.33127,124.135666 117.298953,124.060748 117.266636,123.9873 C116.746622,122.812128 116.185477,121.660459 115.587608,120.530824 C115.55676,120.473534 115.527381,120.416245 115.498001,120.358955 C114.888381,119.219038 114.240567,118.102624 113.556029,117.011183 C113.529588,116.967114 113.501677,116.924514 113.475236,116.880445 C103.662546,101.332914 86.33316,91.0046172 66.5902634,91.0046172 L66.5902634,79.8184448 C84.3397738,79.8184448 100.466077,86.7651828 112.402891,98.085031 C118.455029,89.2051345 121.995236,78.4772793 121.995236,66.9194586 C121.995236,36.3209069 97.1888152,11.5159552 66.5902634,11.5159552 C35.9917117,11.5159552 11.185291,36.3209069 11.185291,66.9194586 C11.185291,78.4772793 14.7254979,89.2051345 20.7776359,98.085031 C20.7835117,98.0791552 20.7908566,98.0732793 20.7967324,98.0674034 C30.7607255,112.708583 47.5524703,122.324431 66.5902634,122.324431 L66.5902634,133.510603 C48.8407531,133.510603 32.7144497,126.565334 20.7776359,115.245486 C14.7254979,124.123914 11.185291,134.853238 11.185291,146.40959 C11.185291,177.008141 35.9917117,201.814562 66.5902634,201.814562 C97.1888152,201.814562 121.995236,177.008141 121.995236,146.40959 C121.995236,145.766183 121.980546,145.125714 121.958512,144.488183 C121.952636,144.332472 121.94676,144.178231 121.940884,144.02399" id="Fill-6" fill="#FFFFFF"></path>
                    <path d="M90.6751283,66.9200462 C90.6751283,80.221529 79.8914524,91.0052048 66.5899697,91.0052048 C53.2884869,91.0052048 42.50628,80.221529 42.50628,66.9200462 C42.50628,53.6185634 53.2884869,42.8348876 66.5899697,42.8348876 C79.8914524,42.8348876 90.6751283,53.6185634 90.6751283,66.9200462" id="Fill-8" fill="#A43F3F"></path>
                    <path d="M90.6660207,146.40959 C91.2154138,161.000824 82.9803931,173.304879 66.5808621,179.270348 L66.5808621,170.494748 C53.2793793,170.494748 42.4971724,159.711072 42.4971724,146.40959 C42.4971724,133.108107 53.2793793,122.324431 66.5808621,122.324431 C79.8823448,122.324431 90.6660207,133.108107 90.6660207,146.40959" id="Fill-10" fill="#A43F3F"></path>
                </g>
            </g>
        </g>
    </g>
</svg>