<?xml version="1.0" encoding="UTF-8" standalone="no"?>
<svg width="152px" height="152px" viewBox="0 0 152 152" version="1.1" xmlns="http://www.w3.org/2000/svg" xmlns:xlink="http://www.w3.org/1999/xlink" xmlns:sketch="http://www.bohemiancoding.com/sketch/ns">
    <!-- Generator: Sketch 3.3.3 (12081) - http://www.bohemiancoding.com/sketch -->
    <title>Imported Layers</title>
    <desc>Created with Sketch.</desc>
    <defs>
        <path id="path-1" d="M144.509155,72.0803265 C144.509155,111.715592 112.37402,143.846204 72.7331757,143.846204 C33.0933108,143.846204 0.958175676,111.715592 0.958175676,72.0803265 C0.958175676,32.4460408 33.0933108,0.315428571 72.7331757,0.315428571 C112.37402,0.315428571 144.509155,32.4460408 144.509155,72.0803265 L144.509155,72.0803265 Z"></path>
    </defs>
    <g id="Page-3" stroke="none" stroke-width="1" fill="none" fill-rule="evenodd" sketch:type="MSPage">
        <g id="Desktop-HD-Copy-4" sketch:type="MSArtboardGroup" transform="translate(-884.000000, -305.000000)">
            <g id="Imported-Layers" sketch:type="MSLayerGroup" transform="translate(887.000000, 307.000000)">
                <mask id="mask-2" sketch:name="Clip 2" fill="white">
                    <use xlink:href="#path-1"></use>
                </mask>
                <g id="Clip-2"></g>
                <path d="M0.958175676,0.315428571 L144.509155,0.315428571 L144.509155,143.846204 L0.958175676,143.846204 L0.958175676,0.315428571 Z" id="Fill-1" fill="#FFFFFF" sketch:type="MSShapeGroup" mask="url(#mask-2)"></path>
                <path d="M81.5105743,43.4272653 L81.5095946,79.4370612 C81.5086149,82.2014694 80.4005405,84.6690612 78.59,86.4852245 C76.7735811,88.2955102 74.3056419,89.4034286 71.5398649,89.4053878 L61.9972973,89.4053878 L61.9972973,97.2421224 L71.5398649,97.2421224 C76.4453716,97.2440816 80.9217568,95.2427755 84.1323311,92.0267755 C87.3487838,88.8176327 89.3493919,84.340898 89.3474324,79.4370612 L89.3484122,43.4272653 L81.5105743,43.4272653" id="Fill-3" fill="#5AAB67" sketch:type="MSShapeGroup" mask="url(#mask-2)"></path>
                <path d="M57.0986486,-1.6437551 L57.0986486,156.805224 L64.9355068,156.805224 L64.9364865,-1.6437551" id="Fill-4" fill="#5AAB67" sketch:type="MSShapeGroup" mask="url(#mask-2)"></path>
                <path d="M89.3484122,144.172408 L89.3474324,108.163592 C89.3493919,103.259755 87.3487838,98.7830204 84.1323311,95.5738776 C80.9217568,92.3578776 76.4453716,90.3565714 71.5398649,90.3585306 L61.9972973,90.3585306 L61.9972973,98.1952653 L71.5398649,98.1952653 C74.3056419,98.1972245 76.7735811,99.3051429 78.59,101.114449 C80.4005405,102.930612 81.5086149,105.398204 81.5095946,108.163592 L81.5105743,144.172408 L89.3484122,144.172408" id="Fill-5" fill="#5AAB67" sketch:type="MSShapeGroup" mask="url(#mask-2)"></path>
                <path d="M9.44263514,38.203102 C4.02864865,48.2938776 0.958175676,59.8275918 0.958175676,72.0803265 C0.958175676,82.3111837 3.09986486,92.0444082 6.95804054,100.851918 L36.8456757,38.203102 L9.44263514,38.203102 Z" id="Fill-6" fill="#D7D7D7" sketch:type="MSShapeGroup" mask="url(#mask-2)"></path>
                <path d="M138.970743,44.3892245 L110.396926,104.284408 L136.893716,104.284408 C141.765912,94.6001633 144.509155,83.6610612 144.509155,72.0803265 C144.509155,62.2667755 142.536959,52.9097143 138.970743,44.3892245" id="Fill-7" fill="#D7D7D7" sketch:type="MSShapeGroup" mask="url(#mask-2)"></path>
            </g>
        </g>
    </g>
</svg>