<?xml version="1.0" encoding="utf-8"?>
<!-- Generator: Adobe Illustrator 18.0.0, SVG Export Plug-In . SVG Version: 6.00 Build 0)  -->
<!DOCTYPE svg PUBLIC "-//W3C//DTD SVG 1.1//EN" "http://www.w3.org/Graphics/SVG/1.1/DTD/svg11.dtd">
<svg version="1.1" id="Layer_1" xmlns:sketch="http://www.bohemiancoding.com/sketch/ns"
	 xmlns="http://www.w3.org/2000/svg" xmlns:xlink="http://www.w3.org/1999/xlink" x="0px" y="0px" viewBox="0 0 160 160"
	 enable-background="new 0 0 160 160" xml:space="preserve">
<title>icon-napa</title>
<desc>Created with Sketch.</desc>
<g id="Page-4" sketch:type="MSPage">
	<g id="icon-napa" sketch:type="MSLayerGroup">
		<g id="Layer_1_1_" sketch:type="MSShapeGroup">
			<rect id="Rectangle-path" fill="#0051A2" width="160" height="160"/>
			<g id="Group" transform="translate(8.000000, 21.000000)">
				<g id="Shape">
					<path opacity="0.2" fill="#FFFFFF" enable-background="new    " d="M114.2,91.2c-2,0-3.6,1.6-3.6,3.6c0,2,1.6,3.6,3.6,3.6
						s3.6-1.6,3.6-3.6C117.8,92.8,116.2,91.2,114.2,91.2L114.2,91.2z M114.2,97.8c-1.6,0-2.9-1.3-2.9-2.9c0-1.6,1.3-2.9,2.9-2.9
						c1.6,0,2.9,1.3,2.9,2.9C117.1,96.4,115.8,97.8,114.2,97.8L114.2,97.8z"/>
					<path opacity="0.2" fill="#FFFFFF" enable-background="new    " d="M114.7,95.2c0,0-0.1-0.1-0.2-0.2c0.2-0.1,0.4-0.2,0.6-0.3
						c0.2-0.2,0.2-0.4,0.2-0.7c0-0.2,0-0.4-0.1-0.6c-0.1-0.2-0.2-0.3-0.3-0.4c-0.1-0.1-0.3-0.1-0.6-0.1h-1.4v3.8h0.5v-1.6h0.4
						c0.1,0,0.2,0,0.3,0c0.1,0,0.1,0.1,0.2,0.2c0,0,0.3,0.6,0.3,0.6l0.4,0.8h0.6l-0.6-1.1L114.7,95.2L114.7,95.2z M114.1,94.6h-0.8
						v-1.1h0.9c0.2,0,0.4,0,0.5,0.1c0.1,0.1,0.1,0.2,0.1,0.4c0,0.1,0,0.2-0.1,0.3c-0.1,0.1-0.1,0.2-0.2,0.2
						C114.4,94.5,114.3,94.6,114.1,94.6L114.1,94.6z"/>
					<path fill="#FFFFFF" d="M120.9,53.6l-18.3-31.9c0,0-2.3-3.6-7.5-4.2H48.4c0,0-5.2,0.2-7.8,4.8L22.1,54.7c0,0-2.4,4,0,8.3
						l18.4,32.7c0,0,2,4.2,7.3,4.7h47.9c0,0,5.1-0.1,7.6-5.7l17.9-31.3C121.3,63.5,124.5,58.7,120.9,53.6L120.9,53.6z"/>
				</g>
				<path id="Shape_1_" fill="#0051A2" d="M44.9,53.9l2.4,23.5h7.9V40.6H50V60l-2.7-19.5h-8.1v36.8h5.7V53.9z"/>
				<path id="Shape_2_" fill="#0051A2" d="M63.7,68.9h3.9l1,8.5H74l-3.4-36.8l-9.8-0.1l-3.4,36.7h5.4L63.7,68.9L63.7,68.9z
					 M65.6,46.7l1.4,17.1h-2.8L65.6,46.7L65.6,46.7z"/>
				<path id="Shape_3_" fill="#0051A2" d="M81.8,63.6h4.6c0,0,3.5-0.6,3.5-3.9V44.5c0,0-0.1-3.1-3.7-3.9h-9.8v36.7h5.4V63.6
					L81.8,63.6L81.8,63.6z M81.7,45.2l2.1,0c0.8,0.3,1.1,1.1,1.1,1.1v11.3c0,0.8-1.1,1.3-1.1,1.3h-2V45.2L81.7,45.2z"/>
				<path id="Shape_4_" fill="#0051A2" d="M96.2,68.9h3.9l1,8.5h5.4l-3.4-36.8l-9.8-0.1L90,77.2h5.4L96.2,68.9L96.2,68.9z
					 M98.2,46.7l1.4,17.1h-2.8L98.2,46.7L98.2,46.7z"/>
				<path id="Shape_5_" fill="#FFB800" d="M108.5,77.4h4.8l7.9-13.8c0,0,3.3-4.8-0.4-9.9l-7.4-12.9h-5V77.4L108.5,77.4z"/>
				<path id="Shape_6_" fill="#FFB800" d="M102.6,21.7c0,0-2.3-3.6-7.5-4.2H48.4c0,0-5.2,0.2-7.8,4.8l-7.9,13.8h78.2L102.6,21.7
					L102.6,21.7z"/>
				<path id="Shape_7_" fill="#FFB800" d="M40.5,95.8c0,0,2,4.2,7.3,4.7h47.9c0,0,5.1-0.1,7.6-5.7l7.2-12.6H32.8L40.5,95.8
					L40.5,95.8z"/>
				<path id="Shape_8_" fill="#FFB800" d="M30.1,77.2h4.9V40.6h-4.8l-8.1,14.1c0,0-2.4,4,0,8.3L30.1,77.2L30.1,77.2z"/>
			</g>
		</g>
	</g>
</g>
</svg>
