<?xml version="1.0" encoding="utf-8"?>
<!-- Generator: Adobe Illustrator 18.0.0, SVG Export Plug-In . SVG Version: 6.00 Build 0)  -->
<!DOCTYPE svg PUBLIC "-//W3C//DTD SVG 1.1//EN" "http://www.w3.org/Graphics/SVG/1.1/DTD/svg11.dtd">
<svg version="1.1" id="Layer_1" xmlns="http://www.w3.org/2000/svg" xmlns:xlink="http://www.w3.org/1999/xlink" x="0px" y="0px"
	 viewBox="0 0 354 354" enable-background="new 0 0 354 354" xml:space="preserve">
<rect x="0" y="0" fill="#DD7676" width="354" height="354"/>
<rect x="0" y="0" opacity="0.2" fill="#FFFFFF" width="177" height="353.5"/>
<rect x="0" y="0" opacity="0.2" fill="#FFFFFF" width="353.6" height="177"/>
<circle fill="#D64D4D" cx="318" cy="34.4" r="11.9"/>
<g>
	<polygon fill="#FFFFFF" points="115.7,149.8 115.7,115.7 149.8,115.7 149.8,104.8 104.8,104.8 104.8,149.8 	"/>
	<polygon fill="#FFFFFF" points="204.2,115.7 238.3,115.7 238.3,149.8 249.2,149.8 249.2,104.8 204.2,104.8 	"/>
	<polygon fill="#FFFFFF" points="238.3,204.2 238.3,238.3 204.2,238.3 204.2,249.2 249.2,249.2 249.2,204.2 	"/>
	<polygon fill="#FFFFFF" points="149.8,238.3 115.7,238.3 115.7,204.2 104.8,204.2 104.8,249.2 149.8,249.2 	"/>
</g>
</svg>
