<?xml version="1.0" encoding="UTF-8" standalone="no"?>
<svg width="354px" height="354px" viewBox="0 0 354 354" version="1.1" xmlns="http://www.w3.org/2000/svg" xmlns:xlink="http://www.w3.org/1999/xlink">
    <!-- Generator: Sketch 3.8.3 (29802) - http://www.bohemiancoding.com/sketch -->
    <title>Group 22</title>
    <desc>Created with Sketch.</desc>
    <defs></defs>
    <g id="Page-4" stroke="none" stroke-width="1" fill="none" fill-rule="evenodd">
        <g id="Group-22">
            <rect id="Rectangle-241-Copy-3" fill="#0F7ABF" x="0" y="0" width="353.456603" height="353.456603"></rect>
            <g id="Group-20" transform="translate(39.000000, 115.000000)">
                <path d="M134.107541,33.9234159 C130.091188,35.7620973 125.836385,36.2944876 121.439044,36.2944876 C110.298493,36.2944876 103.557947,29.1345719 103.557947,18.2986276 C103.557947,7.84963365 110.490319,0.883192957 122.538046,0.883192957 C127.031299,0.883192957 130.711958,1.89993838 132.913958,3.30229983 L130.283014,9.59091024 C128.513953,8.52746392 125.454065,7.84963365 123.398598,7.84963365 C117.134952,7.84963365 112.451205,12.0580523 112.451205,18.4934371 C112.451205,24.5392027 116.179819,29.3293813 122.442133,29.3293813 C123.972743,29.3774165 125.215615,28.9410965 125.788428,28.5554806 L125.980254,17.1377765 L134.299367,17.1377765 L134.107541,33.9234159" id="Fill-1" fill="#FFFFFF"></path>
                <path d="M154.378468,20.0892737 C154.378468,17.5727621 153.184885,15.2990951 150.411404,15.2990951 C147.781791,15.2990951 145.774281,17.6688325 145.248092,20.0892737 L154.378468,20.0892737 L154.378468,20.0892737 L154.378468,20.0892737 Z M160.498245,32.5690898 C157.678139,34.9881967 153.374047,36.1970829 149.54952,36.1970829 C140.801463,36.1970829 136.834398,29.9084726 136.834398,23.6692316 C136.834398,16.3158405 142.282785,10.0752653 149.78797,10.0752653 C158.968967,10.0752653 161.838361,16.6547557 161.838361,25.0222236 L145.152179,25.0222236 C145.152179,26.9089401 146.345762,30.1032821 150.93626,30.1032821 C153.853611,30.1032821 155.478802,29.2306422 157.724763,27.6828408 L160.498245,32.5690898 L160.498245,32.5690898 L160.498245,32.5690898 Z" id="Fill-2" fill="#FFFFFF"></path>
                <path d="M177.183095,29.812402 C181.151491,29.812402 182.347738,26.3298488 182.347738,23.1368412 C182.347738,19.9438338 181.151491,16.4599462 177.183095,16.4599462 C173.21603,16.4599462 172.021116,19.9438338 172.021116,23.1368412 C172.021116,26.3298488 173.21603,29.812402 177.183095,29.812402 L177.183095,29.812402 L177.183095,29.812402 Z M177.183095,10.0752653 C186.076353,10.0752653 190.66552,15.7821159 190.66552,23.1368412 C190.66552,30.488898 186.076353,36.1970829 177.183095,36.1970829 C168.293833,36.1970829 163.703335,30.488898 163.703335,23.1368412 C163.703335,15.7821159 168.293833,10.0752653 177.183095,10.0752653 L177.183095,10.0752653 L177.183095,10.0752653 Z" id="Fill-3" fill="#FFFFFF"></path>
                <path d="M192.820896,10.9452365 L201.138676,10.9452365 L201.138676,14.3810888 L201.23459,14.3810888 C202.476129,12.300897 204.101319,10.2674062 207.354367,10.2674062 C208.261542,10.2674062 209.216676,10.364811 210.078559,10.5582861 L208.978226,18.879053 C208.165629,18.6375427 207.258453,18.394698 206.01425,18.394698 C203.240769,18.394698 201.089388,20.7657697 201.089388,21.2501247 L200.945518,35.3271118 L192.627738,35.3271118 L192.820896,10.9452365" id="Fill-4" fill="#FFFFFF"></path>
                <path d="M217.91944,18.202557 C217.91944,20.0892737 219.256893,21.7331456 221.456229,21.7331456 C223.465071,21.7331456 224.947725,20.1373089 224.947725,18.202557 C224.947725,16.3638758 223.367825,14.7186696 221.456229,14.7186696 C219.496674,14.7186696 217.91944,16.2678053 217.91944,18.202557 L217.91944,18.202557 L217.91944,18.202557 Z M221.409604,42.0026726 C223.89668,42.0026726 226.427714,41.1313671 226.427714,38.7616297 C226.427714,37.0190188 224.947725,36.0529773 218.923862,35.5205869 C217.201425,36.5840332 216.390161,37.6488139 216.390161,38.8577001 C216.390161,41.3248422 219.067731,42.0026726 221.409604,42.0026726 L221.409604,42.0026726 L221.409604,42.0026726 Z M235.799206,16.5560166 L231.163415,16.2678053 C231.688271,17.2818822 232.118547,18.3466628 232.118547,19.4594786 C232.118547,24.4911675 226.574248,26.6687639 222.030374,26.6687639 C220.547721,26.6687639 218.732035,26.4739544 218.588165,26.4739544 C218.445629,26.4739544 217.967395,27.0557144 217.967395,27.6348056 C217.967395,28.6035158 219.018442,28.9410965 220.787502,29.0865365 C226.38109,29.5695573 234.174014,30.4408628 234.174014,37.6968491 C234.174014,44.8087297 226.763409,47.5173822 220.740879,47.5173822 C216.198336,47.5173822 208.645195,46.6941121 208.645195,40.5509415 C208.645195,38.1318346 210.603416,36.1010125 213.807174,34.7466862 L213.807174,34.6492815 C210.364965,33.9234159 209.074137,32.7145297 209.074137,30.8278132 C209.074137,27.9256855 212.756127,25.893529 215.099333,25.1196283 C212.372477,23.6198621 210.747285,21.6851104 210.747285,18.4934371 C210.747285,12.3969675 216.101092,10.0752653 221.409604,10.0752653 C223.417114,10.0752653 226.045395,10.4141805 227.814456,11.4295916 L235.799206,10.9452365 L235.799206,16.5560166 L235.799206,16.5560166 L235.799206,16.5560166 Z" id="Fill-5" fill="#FFFFFF"></path>
                <path d="M239.002962,7.07573295 L247.323408,7.07573295 L247.323408,0.109292247 L239.002962,0.109292247 L239.002962,7.07573295 L239.002962,7.07573295 Z M239.002962,10.9452365 L247.323408,10.9452365 L247.13025,35.3271118 L238.812468,35.3271118 L239.002962,10.9452365 L239.002962,10.9452365 L239.002962,10.9452365 Z" id="Fill-6" fill="#FFFFFF"></path>
                <path d="M264.723609,24.1042171 C264.390578,24.1522525 263.95897,24.2483229 263.290244,24.296358 C261.185488,24.4431323 258.461295,25.5065786 258.461295,28.2165654 C258.461295,29.8604372 260.038529,30.6823731 261.378646,30.6823731 C263.050461,30.6823731 264.723609,29.6175925 264.723609,29.0865365 L264.723609,24.1042171 L264.723609,24.1042171 L264.723609,24.1042171 Z M252.294894,14.1382441 C256.452451,11.5750316 260.18373,10.0752653 265.105928,10.0752653 C269.552557,10.0752653 272.469908,12.300897 272.469908,16.9443013 L272.469908,28.7476214 C272.469908,29.6669621 272.805603,30.3928276 273.85665,30.3928276 C274.238969,30.3928276 274.621289,30.2954228 274.86107,30.1032821 L275.768246,34.6973167 C274.667912,35.5686221 270.79676,36.1970829 269.363396,36.1970829 C267.11477,36.1970829 265.585492,35.3271118 265.249798,33.5364657 C263.386156,35.0362319 260.803169,36.1970829 258.270801,36.1970829 C253.918753,36.1970829 250.716327,33.5845009 250.716327,29.1826071 C250.716327,24.1522525 253.489808,22.2655358 258.654453,20.9112096 C260.134441,20.5242592 262.47898,20.1373089 264.723609,19.9438338 L264.723609,19.0244929 C264.723609,17.0897412 263.625939,16.1704006 262.046039,16.1704006 C259.51234,16.1704006 257.267712,17.7195364 255.115,18.8310178 L252.294894,14.1382441 L252.294894,14.1382441 L252.294894,14.1382441 Z" id="Fill-7" fill="#FFFFFF"></path>
                <polyline id="Fill-8" fill="#FFFFFF" points="105.176477 47.2171622 115.599013 47.2171622 127.024639 69.1799306 127.120552 69.1799306 127.311045 47.2171622 135.105302 47.2171622 134.817563 80.693705 124.873259 80.693705 112.969401 58.7309366 112.873488 58.7309366 112.682994 80.693705 104.89007 80.693705 105.176477 47.2171622"></polyline>
                <path d="M151.596994,69.4708105 C151.265295,69.5188457 150.833687,69.6149161 150.164961,69.6629513 C148.06287,69.8097256 145.336012,70.873172 145.336012,73.5831588 C145.336012,75.2270306 146.914579,76.0489665 148.252031,76.0489665 C149.925179,76.0489665 151.596994,74.9841859 151.596994,74.4531299 L151.596994,69.4708105 L151.596994,69.4708105 L151.596994,69.4708105 Z M139.168279,59.5048374 C143.328502,56.9416249 147.058448,55.4418586 151.979313,55.4418586 C156.425942,55.4418586 159.343294,57.6674904 159.343294,62.3108945 L159.343294,74.1142146 C159.343294,75.0335555 159.678989,75.7594208 160.730034,75.7594208 C161.112354,75.7594208 161.494673,75.6620161 161.734456,75.4698753 L162.641632,80.0639101 C161.541298,80.9352155 157.670146,81.5636761 156.236781,81.5636761 C153.988156,81.5636761 152.458878,80.693705 152.125847,78.9030589 C150.260874,80.4028251 147.679218,81.5636761 145.145518,81.5636761 C140.794802,81.5636761 137.591045,78.9510941 137.591045,74.5492003 C137.591045,69.5188457 140.364526,67.6321292 145.527838,66.2778029 C147.00916,65.8908526 149.352365,65.5039021 151.596994,65.310427 L151.596994,64.3910864 C151.596994,62.4563346 150.500656,61.5369938 148.920757,61.5369938 C146.38839,61.5369938 144.141097,63.0861296 141.989717,64.1976112 L139.168279,59.5048374 L139.168279,59.5048374 L139.168279,59.5048374 Z" id="Fill-9" fill="#FFFFFF"></path>
                <path d="M162.738877,56.3118297 L166.276998,56.3118297 L166.466159,48.0404323 L174.498866,48.0404323 L174.308372,56.3118297 L181.1435,56.3118297 L181.000961,62.4082993 L174.165835,62.4082993 C174.165835,65.7934479 173.926052,69.3734058 173.926052,71.4535974 C173.926052,73.5831588 174.452241,74.5972355 176.317215,74.5972355 C177.464173,74.5972355 178.419306,74.0181442 179.377102,73.4363845 L181.192788,79.1459036 C178.755001,80.6456698 175.789694,81.5636761 172.968255,81.5636761 C166.227709,81.5636761 165.894678,77.2591871 165.894678,71.6484069 C165.894678,68.6475402 166.133128,65.6480077 166.133128,62.4082993 L162.548383,62.4082993 L162.738877,56.3118297" id="Fill-10" fill="#FFFFFF"></path>
                <path d="M199.981061,56.3118297 L208.301507,56.3118297 L208.108349,80.693705 L199.790567,80.693705 L199.790567,78.0330878 C197.878971,79.9198043 194.961618,81.5636761 191.997644,81.5636761 C186.883621,81.5636761 184.110139,78.7095838 184.110139,72.0353573 C184.110139,67.0517036 184.156762,61.6824339 184.206051,56.3118297 L192.523833,56.3118297 C192.474545,61.0046036 192.42792,65.7454125 192.42792,70.7757673 C192.42792,72.7598885 192.952776,74.30769 195.439851,74.30769 C196.777304,74.30769 198.690233,73.1481731 199.790567,72.0833925 L199.981061,56.3118297" id="Fill-11" fill="#FFFFFF"></path>
                <path d="M213.368906,56.3118297 L221.688017,56.3118297 L221.688017,59.747682 L221.783931,59.747682 C223.02547,57.6674904 224.65066,55.6353338 227.903708,55.6353338 C228.810883,55.6353338 229.766017,55.7314043 230.6279,55.9248795 L229.526234,64.2456464 C228.714972,64.0041359 227.806463,63.7612912 226.563591,63.7612912 C223.790109,63.7612912 221.637398,66.1323629 221.637398,66.6167179 L221.494859,80.693705 L213.177079,80.693705 L213.368906,56.3118297" id="Fill-12" fill="#FFFFFF"></path>
                <path d="M244.252863,69.4708105 C243.919832,69.5188457 243.488223,69.6149161 242.819498,69.6629513 C240.714742,69.8097256 237.990549,70.873172 237.990549,73.5831588 C237.990549,75.2270306 239.566451,76.0489665 240.906567,76.0489665 C242.579715,76.0489665 244.252863,74.9841859 244.252863,74.4531299 L244.252863,69.4708105 L244.252863,69.4708105 L244.252863,69.4708105 Z M231.824148,59.5048374 C235.981705,56.9416249 239.712986,55.4418586 244.635182,55.4418586 C249.081811,55.4418586 251.999162,57.6674904 251.999162,62.3108945 L251.999162,74.1142146 C251.999162,75.0335555 252.333526,75.7594208 253.385904,75.7594208 C253.768223,75.7594208 254.150543,75.6620161 254.388993,75.4698753 L255.297501,80.0639101 C254.197166,80.9352155 250.326014,81.5636761 248.891317,81.5636761 C246.644024,81.5636761 245.114746,80.693705 244.779052,78.9030589 C242.91541,80.4028251 240.332422,81.5636761 237.800055,81.5636761 C233.448007,81.5636761 230.244248,78.9510941 230.244248,74.5492003 C230.244248,69.5188457 233.017731,67.6321292 238.182375,66.2778029 C239.663697,65.8908526 242.008234,65.5039021 244.252863,65.310427 L244.252863,64.3910864 C244.252863,62.4563346 243.155193,61.5369938 241.575293,61.5369938 C239.041594,61.5369938 236.795633,63.0861296 234.644254,64.1976112 L231.824148,59.5048374 L231.824148,59.5048374 L231.824148,59.5048374 Z" id="Fill-13" fill="#FFFFFF"></path>
                <polyline id="Fill-14" fill="#FFFFFF" points="258.214852 44.4111049 266.532633 44.4111049 266.342138 80.693705 258.021694 80.693705 258.214852 44.4111049"></polyline>
                <path d="M183.638566,95.4044901 C183.638566,97.4112947 185.20248,99.0324832 187.127398,99.0324832 C189.060311,99.0324832 190.624223,97.4112947 190.624223,95.4044901 C190.624223,93.4003542 189.060311,91.7791655 187.127398,91.7791655 C185.20248,91.7791655 183.638566,93.4003542 183.638566,95.4044901 L183.638566,95.4044901 L183.638566,95.4044901 Z M184.219373,95.3938157 C184.219373,93.6645479 185.480895,92.3235646 187.127398,92.3235646 C188.7779,92.3235646 190.039422,93.6645479 190.039422,95.3938157 C190.039422,97.1457667 188.7779,98.4880842 187.127398,98.4880842 C185.480895,98.4880842 184.219373,97.1457667 184.219373,95.3938157 L184.219373,95.3938157 L184.219373,95.3938157 Z M186.324129,95.6580094 L187.080775,95.6580094 L188.186438,97.5207082 L188.847171,97.5207082 L187.664246,95.6366604 C188.265033,95.5672762 188.720618,95.2430384 188.720618,94.4891523 C188.720618,93.6832282 188.293006,93.2909405 187.437783,93.2909405 L185.740658,93.2909405 L185.740658,97.5207082 L186.324129,97.5207082 L186.324129,95.6580094 L186.324129,95.6580094 L186.324129,95.6580094 Z M186.324129,95.1749885 L186.324129,93.7739613 L187.208659,93.7739613 C187.760157,93.7739613 188.139813,93.8940494 188.139813,94.4584632 C188.139813,95.1229503 187.650923,95.1749885 187.0528,95.1749885 L186.324129,95.1749885 L186.324129,95.1749885 L186.324129,95.1749885 Z" id="Fill-15" fill="#FFFFFF"></path>
                <path d="M134.107541,120.32009 C130.093852,122.158771 125.836385,122.691162 121.440376,122.691162 C110.298493,122.691162 103.557947,115.531246 103.557947,104.695302 C103.557947,94.2463076 110.491651,87.279867 122.538046,87.279867 C127.033964,87.279867 130.71329,88.2966124 132.913958,89.6989739 L130.283014,95.9875842 C128.513953,94.9241379 125.454065,94.2463076 123.398598,94.2463076 C117.136284,94.2463076 112.451205,98.4547263 112.451205,104.890111 C112.451205,110.935877 116.179819,115.726055 122.444797,115.726055 C123.974076,115.774091 125.215615,115.337771 125.78976,114.952155 L125.980254,103.53445 L134.300699,103.53445 L134.107541,120.32009" id="Fill-16" fill="#FFFFFF"></path>
                <path d="M150.364779,110.500891 C150.029084,110.548926 149.598808,110.644997 148.927418,110.693032 C146.825327,110.839806 144.101133,111.903253 144.101133,114.613239 C144.101133,116.257111 145.678368,117.079047 147.01582,117.079047 C148.691632,117.079047 150.364779,116.014267 150.364779,115.483211 L150.364779,110.500891 L150.364779,110.500891 L150.364779,110.500891 Z M137.9334,100.534918 C142.093623,97.9717056 145.820905,96.4719394 150.747099,96.4719394 C155.193728,96.4719394 158.107083,98.697571 158.107083,103.340975 L158.107083,115.144295 C158.107083,116.063636 158.442778,116.789502 159.493824,116.789502 C159.876143,116.789502 160.258463,116.692097 160.498245,116.499956 L161.406753,121.093991 C160.307751,121.965296 156.433935,122.593757 155.00057,122.593757 C152.753277,122.593757 151.222667,121.723786 150.889636,119.93314 C149.024663,121.432906 146.443007,122.593757 143.909308,122.593757 C139.558591,122.593757 136.356166,119.981175 136.356166,115.579281 C136.356166,110.548926 139.129647,108.66221 144.291627,107.307884 C145.774281,106.920933 148.116154,106.533983 150.364779,106.340508 L150.364779,105.421167 C150.364779,103.486415 149.263113,102.567075 147.687211,102.567075 C145.152179,102.567075 142.904886,104.11621 140.753506,105.226358 L137.9334,100.534918 L137.9334,100.534918 L137.9334,100.534918 Z" id="Fill-17" fill="#FFFFFF"></path>
                <g id="Group-21" transform="translate(0.143846, 0.000000)" fill="#FFFFFF">
                    <path d="M164.514621,115.435175 C166.237057,116.111671 169.247657,116.789502 171.303124,116.789502 C172.499371,116.789502 174.076605,116.063636 174.076605,114.853416 C174.076605,113.789969 173.647662,113.403019 169.439482,112.192798 C165.376505,111.031947 162.888098,109.097195 162.888098,104.551196 C162.888098,98.697571 168.339148,96.4719394 173.407879,96.4719394 C177.518813,96.4719394 181.007644,97.4393152 181.965442,98.067776 L180.434832,103.291606 C178.809641,102.85662 176.896711,102.277529 174.554838,102.277529 C173.26401,102.277529 171.494949,102.808585 171.494949,104.212281 C171.494949,105.226358 171.925225,105.856153 174.554838,106.388543 C179.241249,107.355919 182.683458,108.90372 182.683458,114.322359 C182.683458,120.61097 177.279031,122.593757 171.445661,122.593757 C167.860916,122.593757 163.796606,121.578346 162.649648,120.99792 L164.514621,115.435175" id="Fill-18"></path>
                    <g id="Fill-20-Clipped">
                        <path d="M44.9778269,101.15137 L34.2382451,101.134024 C28.8950966,100.129287 27.3831361,94.0875246 25.4142573,89.9084608 C24.1593965,87.2398377 24.6709322,83.3369763 26.0669979,80.8578254 L44.9991409,47.7282034 L63.8846596,80.9925908 C65.278061,83.473076 65.8255638,86.8822421 64.5707032,89.5548683 C62.5951637,93.7379349 61.1631307,100.139962 55.8199821,101.143364 L44.9778269,101.15137 L44.9685021,101.16071 L57.90742,123.378332 C63.4836902,122.944681 70.498654,124.672614 74.1659908,119.845075 L76.5385032,116.070308 L87.5471739,94.3864103 C90.5631022,89.035821 90.8881403,81.0553034 87.3606767,75.9448902 L44.9525165,0.508251407 L2.54968488,75.9408872 C-0.980443092,81.0526349 -0.656737016,89.0318181 2.36451968,94.3837418 L13.3745226,116.060968 L15.7417065,119.839738 C19.4117076,124.663274 26.4293356,122.932672 32.0016093,123.367658 L45.033776,101.16071 L44.9778269,101.15137" id="Fill-20"></path>
                    </g>
                </g>
                <path d="M51.7729673,89.7470091 L45.1283339,100.9192 C45.0777132,101.036619 38.5809457,89.5815545 38.5289928,89.605572 C36.9504261,87.1891338 36.7186367,83.3716684 37.8802485,81.4569313 L45.085706,69.6696228 L52.1166553,81.3875471 C53.5153852,83.2956126 53.094434,87.1891338 51.7729673,89.7470091 L51.7729673,89.7470091 Z" id="Fill-22" fill="#FFFFFF"></path>
                <path d="M77.589526,120.02921 C77.589526,121.778493 78.9522885,123.190194 80.6347608,123.190194 C82.3212295,123.190194 83.6879884,121.778493 83.6879884,120.02921 C83.6879884,118.277259 82.3212295,116.865557 80.6347608,116.865557 C78.9522885,116.865557 77.589526,118.277259 77.589526,120.02921 L77.589526,120.02921 L77.589526,120.02921 Z M78.0970651,120.018536 C78.0970651,118.510764 79.1960672,117.332566 80.6347608,117.332566 C82.0787829,117.332566 83.1737887,118.510764 83.1737887,120.018536 C83.1737887,121.548991 82.0787829,122.719182 80.6347608,122.719182 C79.1960672,122.719182 78.0970651,121.548991 78.0970651,120.018536 L78.0970651,120.018536 L78.0970651,120.018536 Z M79.9300673,120.248037 L80.5947972,120.248037 L81.5605869,121.869226 L82.1373965,121.869226 L81.1010041,120.228023 C81.6271931,120.170647 82.0215017,119.889107 82.0215017,119.227289 C82.0215017,118.524107 81.6485069,118.186526 80.9065141,118.186526 L79.4265246,118.186526 L79.4265246,121.869226 L79.9300673,121.869226 L79.9300673,120.248037 L79.9300673,120.248037 L79.9300673,120.248037 Z M79.9300673,119.829063 L79.9300673,118.598828 L80.7040313,118.598828 C81.1849279,118.598828 81.5179588,118.705573 81.5179588,119.199268 C81.5179588,119.789034 81.0916793,119.829063 80.5694868,119.829063 L79.9300673,119.829063 L79.9300673,119.829063 L79.9300673,119.829063 Z" id="Fill-23" fill="#006FAC"></path>
            </g>
        </g>
    </g>
</svg>