<?xml version="1.0" encoding="utf-8"?>
<svg width="16px" height="16px" viewBox="0 0 16 16" version="1.1" xmlns:xlink="http://www.w3.org/1999/xlink" xmlns="http://www.w3.org/2000/svg">
  <defs>
    <path d="M0 0L16 0L16 16L0 16L0 0Z" id="path_1" />
    <clipPath id="clip_1">
      <use xlink:href="#path_1" />
    </clipPath>
  </defs>
  <g id="icon--menu" clip-path="url(#clip_1)">
    <path d="M0 0L16 0L16 16L0 16L0 0Z" id="icon--menu" fill="none" fill-rule="evenodd" stroke="none" />
    <path d="M1.999 2L14.001 2Q14.0994 2 14.1959 2.0192Q14.2924 2.03839 14.3833 2.07604Q14.4742 2.1137 14.556 2.16836Q14.6378 2.22303 14.7074 2.2926Q14.777 2.36217 14.8316 2.44398Q14.8863 2.5258 14.924 2.6167Q14.9616 2.7076 14.9808 2.8041Q15 2.90061 15 2.999L15 3.001Q15 3.09939 14.9808 3.19589Q14.9616 3.2924 14.924 3.3833Q14.8863 3.4742 14.8316 3.55601Q14.777 3.63783 14.7074 3.7074Q14.6378 3.77697 14.556 3.83164Q14.4742 3.8863 14.3833 3.92396Q14.2924 3.96161 14.1959 3.9808Q14.0994 4 14.001 4L1.999 4Q1.90061 4 1.8041 3.9808Q1.7076 3.96161 1.6167 3.92396Q1.5258 3.8863 1.44399 3.83164Q1.36217 3.77697 1.2926 3.7074Q1.22303 3.63783 1.16836 3.55601Q1.1137 3.4742 1.07604 3.3833Q1.03839 3.2924 1.0192 3.19589Q1 3.09939 1 3.001L1 2.999Q1 2.90061 1.0192 2.8041Q1.03839 2.7076 1.07604 2.6167Q1.1137 2.5258 1.16836 2.44399Q1.22303 2.36217 1.2926 2.2926Q1.36217 2.22303 1.44399 2.16836Q1.5258 2.1137 1.6167 2.07604Q1.7076 2.03839 1.8041 2.0192Q1.90061 2 1.999 2Z" id="Rectangle-2" fill="#87E2CA" fill-rule="evenodd" stroke="none" />
    <path d="M1.999 7L14.001 7Q14.0994 7 14.1959 7.0192Q14.2924 7.03839 14.3833 7.07604Q14.4742 7.1137 14.556 7.16836Q14.6378 7.22303 14.7074 7.2926Q14.777 7.36217 14.8316 7.44398Q14.8863 7.52579 14.924 7.6167Q14.9616 7.7076 14.9808 7.8041Q15 7.90061 15 7.999L15 8.001Q15 8.09939 14.9808 8.19589Q14.9616 8.2924 14.924 8.3833Q14.8863 8.4742 14.8316 8.55601Q14.777 8.63783 14.7074 8.7074Q14.6378 8.77697 14.556 8.83164Q14.4742 8.8863 14.3833 8.92395Q14.2924 8.96161 14.1959 8.9808Q14.0994 9 14.001 9L1.999 9Q1.90061 9 1.8041 8.9808Q1.7076 8.96161 1.6167 8.92395Q1.5258 8.8863 1.44399 8.83164Q1.36217 8.77697 1.2926 8.7074Q1.22303 8.63783 1.16836 8.55601Q1.1137 8.4742 1.07604 8.3833Q1.03839 8.2924 1.0192 8.19589Q1 8.09939 1 8.001L1 7.999Q1 7.90061 1.0192 7.8041Q1.03839 7.7076 1.07604 7.6167Q1.1137 7.52579 1.16836 7.44398Q1.22303 7.36217 1.2926 7.2926Q1.36217 7.22303 1.44399 7.16836Q1.5258 7.1137 1.6167 7.07604Q1.7076 7.03839 1.8041 7.0192Q1.90061 7 1.999 7Z" id="Rectangle-2-Copy" fill="#87E2CA" fill-rule="evenodd" stroke="none" />
    <path d="M1.999 12L14.001 12Q14.0994 12 14.1959 12.0192Q14.2924 12.0384 14.3833 12.076Q14.4742 12.1137 14.556 12.1684Q14.6378 12.223 14.7074 12.2926Q14.777 12.3622 14.8316 12.444Q14.8863 12.5258 14.924 12.6167Q14.9616 12.7076 14.9808 12.8041Q15 12.9006 15 12.999L15 13.001Q15 13.0994 14.9808 13.1959Q14.9616 13.2924 14.924 13.3833Q14.8863 13.4742 14.8316 13.556Q14.777 13.6378 14.7074 13.7074Q14.6378 13.777 14.556 13.8316Q14.4742 13.8863 14.3833 13.924Q14.2924 13.9616 14.1959 13.9808Q14.0994 14 14.001 14L1.999 14Q1.90061 14 1.8041 13.9808Q1.7076 13.9616 1.6167 13.924Q1.5258 13.8863 1.44399 13.8316Q1.36217 13.777 1.2926 13.7074Q1.22303 13.6378 1.16836 13.556Q1.1137 13.4742 1.07604 13.3833Q1.03839 13.2924 1.0192 13.1959Q1 13.0994 1 13.001L1 12.999Q1 12.9006 1.0192 12.8041Q1.03839 12.7076 1.07604 12.6167Q1.1137 12.5258 1.16836 12.444Q1.22303 12.3622 1.2926 12.2926Q1.36217 12.223 1.44399 12.1684Q1.5258 12.1137 1.6167 12.076Q1.7076 12.0384 1.8041 12.0192Q1.90061 12 1.999 12Z" id="Rectangle-2-Copy-2" fill="#87E2CA" fill-rule="evenodd" stroke="none" />
  </g>
</svg>