<?xml version="1.0" encoding="UTF-8" standalone="no"?>
<svg width="800px" height="800px" viewBox="0 0 800 800" version="1.1" xmlns="http://www.w3.org/2000/svg" xmlns:xlink="http://www.w3.org/1999/xlink" xmlns:sketch="http://www.bohemiancoding.com/sketch/ns">
    <!-- Generator: Sketch 3.5.1 (25234) - http://www.bohemiancoding.com/sketch -->
    <title>Group 3</title>
    <desc>Created with Sketch.</desc>
    <defs></defs>
    <g id="Page-3" stroke="none" stroke-width="1" fill="none" fill-rule="evenodd" sketch:type="MSPage">
        <g id="Group-3" sketch:type="MSLayerGroup">
            <rect id="Rectangle-273" fill="#84E19D" sketch:type="MSShapeGroup" x="46" y="30" width="726" height="732"></rect>
            <path d="M479.797246,500.669787 L735.565957,500.669787 L735.565957,735.565957 L502.629089,735.565957 L502.625661,609.566649 C502.637639,579.589519 490.407932,552.223262 470.745772,532.605788 C466.830167,528.683565 462.606563,525.056902 458.115579,521.764079 C462.606563,518.471257 466.830167,514.844594 470.745772,510.922371 C473.969835,507.705635 476.994061,504.280556 479.797246,500.669787 C494.089471,482.260044 502.635675,459.0232 502.625661,433.96151 L502.63165,299.87636 L454.718986,299.87636 L454.712997,433.96151 C454.707008,450.860323 447.933355,465.9447 436.86553,477.046897 C425.76177,488.113165 410.67527,494.885864 393.768089,494.897841 L353.398228,494.897841 L353.40089,64.4340426 L735.565957,64.4340426 L735.565957,299.330213 L353.399437,299.330213 L353.399437,299.330213 L735.565957,299.330213 L613.786633,500.669787 L479.797246,500.669787 L479.797246,500.669787 Z M0,0 L800,0 L800,800 L0,800 L0,0 Z M454.716425,735.565957 L353.39674,735.565957 L353.397896,548.630318 L393.768089,548.630318 C410.67527,548.642295 425.76177,555.414994 436.86553,566.475274 C447.933355,577.577471 454.707008,592.661847 454.712997,609.566649 L454.716425,735.565957 Z M305.489006,64.4340426 L64.4340426,64.4340426 L64.4340426,299.330213 L305.489006,299.330213 L186.213367,299.330213 L64.4340426,500.669787 L305.489006,500.669787 L305.489006,299.330213 L305.489006,64.4340426 Z M305.489006,500.669787 L64.4340426,500.669787 L64.4340426,735.565957 L305.489006,735.565957 L305.489006,500.669787 L305.489006,500.669787 Z" id="Rectangle-260" fill="#FFFFFF" sketch:type="MSShapeGroup"></path>
        </g>
    </g>
</svg>