<?xml version="1.0" encoding="UTF-8" standalone="no"?>
<svg width="354px" height="354px" viewBox="0 0 354 354" version="1.1" xmlns="http://www.w3.org/2000/svg" xmlns:xlink="http://www.w3.org/1999/xlink" xmlns:sketch="http://www.bohemiancoding.com/sketch/ns">
    <!-- Generator: Sketch 3.5.1 (25234) - http://www.bohemiancoding.com/sketch -->
    <title>Group 12</title>
    <desc>Created with Sketch.</desc>
    <defs></defs>
    <g id="Page-4" stroke="none" stroke-width="1" fill="none" fill-rule="evenodd" sketch:type="MSPage">
        <g id="Group-12" sketch:type="MSLayerGroup">
            <rect id="Rectangle-241" fill="#FFE44C" sketch:type="MSShapeGroup" x="0" y="0" width="353.456603" height="353.456603"></rect>
            <g id="Group-11" transform="translate(69.000000, 70.000000)" sketch:type="MSShapeGroup">
                <g id="Group" transform="translate(0.122159, 1.121774)" fill="#000000">
                    <path d="M144.65269,211.861546 L144.65269,199.399102 L200.752348,199.396995 L200.752348,143.264378 L213.206072,143.264378 L213.206072,211.859439 L144.65269,211.861546 Z" id="Shape"></path>
                    <path d="M14.1570314,68.8141808 L1.70330732,68.8141808 L1.70330732,0.21701297 L70.2545842,0.21701297 L70.2545842,12.6794569 L14.1570314,12.6794569 L14.1570314,68.8141808 Z" id="Shape"></path>
                    <path d="M200.752348,68.8141808 L200.748137,12.6794569 L144.65269,12.6794569 L144.65269,0.21701297 L213.199756,0.21701297 L213.206072,68.8120739 L200.752348,68.8141808 Z" id="Shape"></path>
                    <path d="M70.2545842,211.859439 L1.70751822,211.859439 L1.70330732,143.264378 L14.1570314,143.264378 L14.1591369,199.396995 L70.2545842,199.396995 L70.2545842,211.859439 Z" id="Shape"></path>
                </g>
                <g id="Group" transform="translate(23.282086, 22.190995)">
                    <ellipse id="Oval" fill="#000000" cx="84.295816" cy="84.9679522" rx="83.1315033" ry="83.1897099"></ellipse>
                    <path d="M136.782526,60.7046379 L98.6781303,44.7657726 L87.7971758,14.6388944 C87.2202831,13.0292059 85.6285645,11.9483549 83.8326175,11.9357134 L83.8178793,11.9357134 C82.0219323,11.9357134 80.4323192,13.0018159 79.8385829,14.594649 L68.5975968,44.7510242 L30.6447936,60.7046379 C29.0846568,61.3641045 28.187736,62.8347361 28.2045795,64.3938584 C22.7514696,66.6798688 16.8962191,68.7888978 10.7019915,70.7525491 C10.5356611,71.865004 10.4051233,72.973245 10.2809019,74.0983413 C17.0920257,71.9850985 23.5283798,69.7033019 29.4804809,67.2192409 C30.246864,67.9039905 31.2364245,68.3380165 32.3502064,68.3380165 L67.7554176,68.3380165 L67.7554176,93.5157349 L29.9794721,110.737716 C28.5161858,111.403503 27.6592685,112.785644 27.6403195,114.268917 C24.6316345,115.518322 21.4797791,116.696091 18.2605493,117.844364 C18.7321696,118.784051 19.2311608,119.696348 19.7322574,120.606539 C22.8735856,119.483549 25.9306959,118.320528 28.8677956,117.115369 C29.6236514,117.84015 30.65111,118.316314 31.7964736,118.316314 L64.7762089,118.316314 L55.9838586,153.124773 C58.5693486,154.19509 61.2285292,155.130563 63.9361352,155.901697 L64.9635938,151.843765 L72.3810866,157.770536 C75.6382144,158.284625 78.9627166,158.556418 82.3398549,158.600664 L69.9682433,148.72552 L97.2590585,148.72552 L84.8979741,158.59645 C88.291956,158.537456 91.6354073,158.261449 94.9093787,157.734719 L102.278446,151.845872 L103.295378,155.855344 C106.015616,155.065249 108.66848,154.138203 111.256076,153.053138 L102.478464,118.318421 L135.647689,118.318421 C136.818318,118.318421 137.864726,117.825401 138.633214,117.071123 C141.45662,118.240465 144.406352,119.357134 147.425565,120.446412 C147.930872,119.538329 148.425652,118.623925 148.897273,117.686345 C145.768577,116.561248 142.7241,115.410869 139.808054,114.201495 C139.761734,112.743505 138.904817,111.382434 137.456269,110.725074 L99.4950441,93.5157349 L99.4950441,68.3401234 L135.08764,68.3401234 C136.224582,68.3401234 137.239408,67.8787075 138.010002,67.1686747 C143.837882,69.6000628 150.120538,71.8397209 156.767437,73.9255737 C156.645321,72.8025843 156.506361,71.6817017 156.333715,70.5734608 C150.299501,68.6350925 144.585316,66.5576673 139.250111,64.3201161 C139.218529,62.7778492 138.315292,61.3451422 136.782526,60.7046379 L136.782526,60.7046379 Z M66.2900259,110.341614 L50.2675677,110.341614 L67.0564089,102.687167 L66.2900259,110.341614 L66.2900259,110.341614 Z M67.7512067,60.3654235 L52.2214233,60.3654235 L67.7512067,53.8339651 L67.7512067,60.3654235 L67.7512067,60.3654235 Z M83.7441887,28.081057 L89.3952107,43.7165255 L77.9205199,43.7165255 L83.7441887,28.081057 L83.7441887,28.081057 Z M76.1729982,51.6933323 L91.0690418,51.6933323 L91.0690418,60.3633165 L76.1729982,60.3633165 L76.1729982,51.6933323 L76.1729982,51.6933323 Z M89.0857099,92.0451033 L78.1626464,92.0451033 L83.6199672,84.6224169 L89.0857099,92.0451033 L89.0857099,92.0451033 Z M78.1626464,68.3401234 L89.0857099,68.3401234 L83.6220727,75.7607028 L78.1626464,68.3401234 L78.1626464,68.3401234 Z M86.881306,80.1915599 L91.0690418,74.5049773 L91.0690418,85.8844632 L86.881306,80.1915599 L86.881306,80.1915599 Z M76.1729982,74.5070842 L80.3628394,80.1936668 L76.1729982,85.8865702 L76.1729982,74.5070842 L76.1729982,74.5070842 Z M75.7919121,100.019803 L91.4543387,100.019803 L92.5028518,110.341614 L74.7497154,110.341614 L75.7919121,100.019803 L75.7919121,100.019803 Z M88.555137,118.318421 L83.6220727,122.778775 L78.6890084,118.318421 L88.555137,118.318421 L88.555137,118.318421 Z M72.8653396,120.585469 L79.4553914,126.550166 L68.9492066,136.035529 L72.8653396,120.585469 L72.8653396,120.585469 Z M69.2818673,143.272806 L83.6220727,130.315235 L97.9622781,143.272806 L69.2818673,143.272806 L69.2818673,143.272806 Z M87.7866486,126.550166 L94.3872276,120.577042 L98.2907279,136.052384 L87.7866486,126.550166 L87.7866486,126.550166 Z M117.08185,110.341614 L100.964647,110.341614 L100.185631,102.676632 L117.08185,110.341614 L117.08185,110.341614 Z M99.4908332,60.3654235 L99.4908332,53.8255374 L115.117467,60.3654235 L99.4908332,60.3654235 L99.4908332,60.3654235 Z" id="Shape" fill="#FFFFFF"></path>
                </g>
            </g>
        </g>
    </g>
</svg>