<?xml version="1.0" encoding="utf-8"?>
<!-- Generator: Adobe Illustrator 18.0.0, SVG Export Plug-In . SVG Version: 6.00 Build 0)  -->
<!DOCTYPE svg PUBLIC "-//W3C//DTD SVG 1.1//EN" "http://www.w3.org/Graphics/SVG/1.1/DTD/svg11.dtd">
<svg version="1.1" id="Layer_1" xmlns:sketch="http://www.bohemiancoding.com/sketch/ns"
	 xmlns="http://www.w3.org/2000/svg" xmlns:xlink="http://www.w3.org/1999/xlink" x="0px" y="0px" viewBox="0 0 354 354"
	 enable-background="new 0 0 354 354" xml:space="preserve">
<title>Group 17</title>
<desc>Created with Sketch.</desc>
<g id="Page-4" sketch:type="MSPage">
	<g id="Group-17" sketch:type="MSLayerGroup">
		<g id="Mask" sketch:type="MSShapeGroup">
			<rect id="path-1_1_" fill="#FFFFFF" width="354" height="354"/>
		</g>
		<defs>
			<filter id="Adobe_OpacityMaskFilter" filterUnits="userSpaceOnUse" x="0" y="0.2" width="353.8" height="353.8">
				<feColorMatrix  type="matrix" values="1 0 0 0 0  0 1 0 0 0  0 0 1 0 0  0 0 0 1 0"/>
			</filter>
		</defs>
		<mask maskUnits="userSpaceOnUse" x="0" y="0.2" width="353.8" height="353.8" id="mask-2">
			<g filter="url(#Adobe_OpacityMaskFilter)">
				<rect id="path-1" fill="#FFFFFF" width="354" height="354"/>
			</g>
		</mask>
		<g id="source-logo-icon-charcoal" mask="url(#mask-2)">
			<g id="Layer_1_1_" transform="translate(0.000000, 0.271698)">
				<g>
					<g id="Group" sketch:type="MSShapeGroup">
						<path id="Shape" fill="#333333" d="M173,324.7c9.4,7.8,27.7,20.9,52.5,29h83.3c27.5-10.9,44.8-33.6,44.8-64
							c0-104.8-207.3-80-207.3-209.1c0-33.8,14.2-61.4,37.3-80.7H0v353.8h148.8L173,324.7L173,324.7z"/>
						<path id="Shape_1_" fill="#333333" d="M275.4,8.4c-47.4,0-87.1,26.1-87.1,69.9c0,71.2,104.9,78.3,165.5,124.6V34
							C338.7,23.9,312,8.4,275.4,8.4L275.4,8.4z"/>
					</g>
				</g>
			</g>
		</g>
	</g>
</g>
</svg>
