<?xml version="1.0" encoding="utf-8"?>
<!-- Generator: Adobe Illustrator 18.0.0, SVG Export Plug-In . SVG Version: 6.00 Build 0)  -->
<!DOCTYPE svg PUBLIC "-//W3C//DTD SVG 1.1//EN" "http://www.w3.org/Graphics/SVG/1.1/DTD/svg11.dtd">
<svg version="1.1" id="Layer_1" xmlns:sketch="http://www.bohemiancoding.com/sketch/ns"
	 xmlns="http://www.w3.org/2000/svg" xmlns:xlink="http://www.w3.org/1999/xlink" x="0px" y="0px" viewBox="0 31 619 240"
	 enable-background="new 0 31 619 240" xml:space="preserve">
<title>Artboard 1 Copy</title>
<desc>Created with Sketch.</desc>
<g id="Page-4" sketch:type="MSPage">
	<g id="Artboard-1-Copy" sketch:type="MSArtboardGroup">
		
			<g id="Stroke-1-_x2B_-e-Prove-_x2B_-Path-647-_x2B_-Group-_x2B_-Group-Copy-_x2B_-Fill-1-_x2B_-Stroke-7-_x2B_-Fill-13" transform="translate(170.000000, 44.000000)" sketch:type="MSLayerGroup">
			
				<g id="Stroke-1-_x2B_-e-Prove-_x2B_-Path-647-_x2B_-Group" transform="translate(0.394467, 8.013158)" sketch:type="MSShapeGroup">
				<g id="Path-647-_x2B_-Group">
					<path id="Path-647" fill="#FFFFFF" d="M38.8,1.5c-2.2-1.4-5.7-1.4-7.9,0l-27,16C1.8,18.8,0,21.9,0,24.4v30.8
						c0,2.5,1.7,5.6,4,6.9l25.8,15c2.2,1.3,5.7,1.3,8,0.1l27-14.7c2.2-1.3,4-4.2,4-6.8V24.6c0-2.5-1.7-5.6-3.9-7L38.8,1.5L38.8,1.5z
						"/>
				</g>
			</g>
			<g id="Group-Copy" transform="translate(3.729508, 13.454191)" sketch:type="MSShapeGroup">
				<g id="Group" transform="translate(0.975408, 0.000000)">
					<path id="Fill-8-Copy" fill="#F4AA34" d="M48.5,45.3c0.7-0.5,1.3-1.5,1.3-2.3V27.6c0-0.8,0.6-1.8,1.3-2.3l8.5-4.9
						c0.7-0.5,1.3-0.1,1.3,0.8v28.6c0,0.8-0.6,1.8-1.3,2.3L34,67.1c-0.7,0.5-1.3,0.1-1.3-0.8V56.2c0-0.8,0.6-1.8,1.3-2.3L48.5,45.3"
						/>
					<path id="Fill-9-Copy" fill="#3793D2" d="M31.2,13.3c-0.7-0.5-2-0.5-2.6,0l-14.7,8.5c-0.7,0.5-2,0.5-2.6,0l-8.5-4.9
						c-0.7-0.5-0.7-1.1,0-1.5l25.8-15c0.7-0.5,2-0.5,2.6,0l25.8,15c0.7,0.5,0.7,1.1,0,1.5l-8.7,5c-0.7,0.5-2,0.5-2.6,0L31.2,13.3"/>
					<path id="Fill-10-Copy" fill="#DD6666" d="M29.1,17.2c0.7-0.5,2-0.3,2.6,0L43,23.9c0.7,0.5,0.7,1.1,0,1.5l-11.5,6.4
						c-0.7,0.5-2,0.5-2.6,0l-11.6-6.6c-0.7-0.5-0.7-1,0-1.5L29.1,17.2"/>
					<path id="Fill-11-Copy" fill="#6FC96F" d="M32.7,37.2c0-0.8,0.6-1.8,1.3-2.3l11.4-6.6c0.7-0.5,1.3-0.1,1.3,0.8v13.2
						c0,0.8-0.6,1.8-1.3,2.3L34,51.2c-0.7,0.3-1.3,0-1.3-0.8V37.2"/>
					<path id="Fill-12-Copy" fill="#06BFD1" d="M12.4,45.3c-0.7-0.5-1.3-1.5-1.3-2.3V27.6c0-0.8-0.6-1.8-1.3-2.3l-8.5-4.9
						C0.6,20,0,20.4,0,21.2v28.6c0,0.8,0.6,1.8,1.3,2.3l25.7,15c0.7,0.5,1.3,0.1,1.3-0.8V56.2c0-0.8-0.6-1.8-1.3-2.3L12.4,45.3"/>
				</g>
			</g>
			<g id="Fill-1-_x2B_-Stroke-7-_x2B_-Fill-13" transform="translate(100.983607, 0.000000)" sketch:type="MSShapeGroup">
				<path id="Fill-1" fill="#555555" d="M14,62.5c3,0,5.7-0.8,8.1-2.3l0.1,3.7c-2.6,1.3-5.2,1.7-8.1,1.7c-8.7,0-13.9-5.8-13.9-15.7
					c0-9.2,5-15.1,12.7-15.1c5.6,0,9.5,3.2,10.9,8.8c0.6,2.4,0.7,4,0.7,7.4H3.9C4.1,58.2,8,62.5,14,62.5L14,62.5L14,62.5z
					 M20.8,48.2c-0.1-2.5-0.5-3.9-1.1-5.5c-1.3-2.9-3.9-4.6-7-4.6c-3.2,0-6,1.9-7.6,5.3c-0.7,1.4-0.9,2.6-1.1,4.8H20.8L20.8,48.2z
					 M47.2,24.7h7.6c4.7,0,7.3,0.6,9.5,1.8c3.3,1.9,5.3,5.6,5.3,9.7c0,3.7-1.7,7-4.6,9c-2.6,1.8-5.3,2.5-10.2,2.5h-3.7v17.3h-3.8
					V24.7H47.2z M54.6,44.3c4.1,0,6.2-0.6,8.1-2.1c1.7-1.4,2.8-3.5,2.8-6c0-2.9-1.3-5.3-3.8-6.8c-1.6-0.9-3.4-1.3-7-1.3h-3.7v16.1
					h3.6V44.3z M76,47.5c0-1.9-0.2-8.7-0.3-11.7h3.4c0.1,1.9,0.1,2.4,0.1,3.1c0,1.4,0,2.3-0.1,3.8c0.8-2.3,1-2.9,1.8-3.8
					c1.7-2.2,3.8-3.4,6.2-3.4c0.7,0,1.3,0.1,2.4,0.3v3.8c-0.9-0.3-1.5-0.3-2.2-0.3c-3.3,0-5.7,1.8-7,5.4c-0.6,1.7-0.7,3-0.7,7.2
					v13.3H76V47.5L76,47.5z M106,35c8.1,0,13.3,6.1,13.3,15.3c0,9.2-5.4,15.3-13.5,15.3c-8.3,0-13.7-6.1-13.7-15.2
					C92.3,41.1,97.7,35,106,35L106,35z M105.9,62.7c5.6,0,9.8-5.2,9.8-12.2c0-7.2-4.1-12.5-9.6-12.5c-6,0-10,5-10,12.5
					C96,57.6,100.3,62.7,105.9,62.7L105.9,62.7z M122,35.7h3.9l3.6,10.9c3.7,11.2,4.4,13.3,4.8,16.5c0.5-3.1,1.7-7.2,4.8-16.6
					l3.6-10.9h3.7l-10,29.3H132L122,35.7L122,35.7z M163,62.5c3,0,5.7-0.8,8.1-2.3l0.1,3.7c-2.6,1.3-5.2,1.7-8.1,1.7
					c-8.7,0-13.9-5.8-13.9-15.7c0-9.2,5-15.1,12.7-15.1c5.6,0,9.5,3.2,10.9,8.8c0.6,2.4,0.7,4,0.7,7.4h-20.7
					C153.1,58.2,157,62.5,163,62.5L163,62.5z M169.8,48.2c-0.1-2.5-0.5-3.9-1.1-5.5c-1.3-2.9-3.9-4.6-7-4.6c-3.2,0-6,1.9-7.6,5.3
					c-0.7,1.4-0.9,2.6-1.1,4.8H169.8L169.8,48.2L169.8,48.2z"/>
				<path id="Stroke-7" fill="none" stroke="#DDDDDD" d="M35.5,13.4v64.3"/>
				<path id="Fill-13" fill="#CCCCCC" d="M98.5,1.8h1.5l5.4,13.2H104l-1.4-3.5h-6.7L94.6,15h-1.3L98.5,1.8L98.5,1.8L98.5,1.8z
					 M102,10.3l-2.4-6c-0.2-0.6-0.3-1-0.5-1.4C99,3.4,99,3.4,98.7,4.3l-2.4,6H102L102,10.3z M106.1,10.2c0-3,1.5-4.9,3.8-4.9
					c1.4,0,2.5,0.7,3.2,1.9c0-0.6-0.1-1.1-0.1-1.7V0.7h1.1v10.6c0,1.8,0,2.2,0.1,3.7h-1.1v-1.9c-0.5,1.3-1.7,2.2-3.2,2.2
					C107.8,15.1,106.1,13.2,106.1,10.2L106.1,10.2z M113.1,10.2c0-2.4-1.3-4-3.1-4c-1.6,0-2.8,1.5-2.8,3.9c0,2.5,1,4,2.8,4
					C112,14.2,113.1,12.6,113.1,10.2L113.1,10.2z M116.1,5.4h1.3l1.1,3.5c1.3,3.7,1.4,4.4,1.6,5.4c0.1-1,0.6-2.4,1.6-5.4l1.1-3.5
					h1.3L121,15h-1.4L116.1,5.4L116.1,5.4z M130.1,9.2h0.9c0-0.8,0-0.8-0.1-1.1c-0.2-1.1-1-1.7-2.3-1.7c-0.9,0-1.6,0.2-2.6,0.8V5.8
					c0.9-0.5,2-0.7,2.9-0.7c1.4,0,2.5,0.6,3,1.7c0.2,0.6,0.3,1.1,0.3,2.5V11c0,1.5,0.1,2.9,0.1,3.9h-1.1v-0.7v-1
					c-0.7,1.4-1.7,1.9-3.2,1.9c-1.8,0-3.1-1.1-3.1-2.7C125,10.3,126.8,9.2,130.1,9.2L130.1,9.2z M128.2,14.2c1.3,0,2.3-0.7,2.6-1.8
					c0.1-0.5,0.2-1,0.2-1.8v-0.3h-0.3h-0.5c-2.8,0-4.1,0.8-4.1,2.3C126.1,13.4,127,14.2,128.2,14.2L128.2,14.2z M135.3,9V7.9
					c0-0.2-0.1-1.7-0.1-2.4h1.1v1.1v0.8c0.6-1.3,1.8-2.1,3.2-2.1s2.5,0.7,3,1.9c0.2,0.6,0.3,1.3,0.3,3v4.8h-1.1v-4.9
					c0-1.6-0.1-2.2-0.3-2.6c-0.3-0.8-1-1.3-2-1.3c-1,0-2,0.6-2.4,1.5c-0.3,0.7-0.5,1.3-0.5,2.4V15h-1.1V9H135.3z M149.8,5.4
					c0.8,0,1.5,0.1,2.3,0.3l-0.1,1.1c-0.8-0.3-1.4-0.5-2.1-0.5c-2.2,0-3.6,1.5-3.6,3.7s1.5,3.9,3.4,3.9c0.8,0,1.6-0.2,2.3-0.6
					l0.1,1.1c-0.7,0.2-1.5,0.3-2.4,0.3c-2.8,0-4.7-2.1-4.7-4.9S146.9,5.4,149.8,5.4L149.8,5.4z M154.1,1.8h6.4V3h-5.2v4.7h4.9v1.1
					h-4.9v5h5.4V15h-6.7V1.8L154.1,1.8z M163.6,1.8h1.8c2.8,0,3.9,0.2,5,0.8c1.8,1,3,3.2,3,5.8c0,2.4-1,4.5-2.9,5.5
					c-1.1,0.7-2.8,1-4.9,1h-2.1V1.8L163.6,1.8z M166.2,13.9c3.8,0,6-2.1,6-5.5c0-2.2-0.8-3.9-2.3-4.7c-0.9-0.6-2-0.8-3.8-0.8h-1.3
					v11H166.2L166.2,13.9z M176.6,0.7c1.1,0,2.2,0.9,2.2,2.2c0,1.1-1,2.2-2.2,2.2c-1.1,0-2.2-0.9-2.2-2.1
					C174.3,1.6,175.3,0.7,176.6,0.7L176.6,0.7z M176.5,4.6c1,0,1.8-0.8,1.8-1.8s-0.8-1.8-1.8-1.8s-1.8,0.8-1.8,1.8
					S175.5,4.6,176.5,4.6L176.5,4.6L176.5,4.6z M175.7,1.6h0.7c0.3,0,0.5,0,0.6,0.1c0.2,0.1,0.5,0.3,0.5,0.6c0,0.2-0.2,0.5-0.5,0.6
					c0.1,0,0.2,0.1,0.2,0.3l0.5,0.9h-0.5l-0.3-0.7c-0.1-0.2-0.2-0.3-0.5-0.3h-0.2v1h-0.5V1.6L175.7,1.6L175.7,1.6z M176.4,2.6
					c0.5,0,0.6-0.1,0.6-0.3c0-0.2-0.1-0.3-0.6-0.3h-0.2v0.7H176.4L176.4,2.6L176.4,2.6z"/>
			</g>
		</g>
		<g id="Page-1" transform="translate(85.000000, 174.000000)" sketch:type="MSLayerGroup">
			<g id="Group-3">
				<g id="Clip-2">
				</g>
				<defs>
					<filter id="Adobe_OpacityMaskFilter" filterUnits="userSpaceOnUse" x="0" y="0.2" width="49.8" height="49.8">
						<feColorMatrix  type="matrix" values="1 0 0 0 0  0 1 0 0 0  0 0 1 0 0  0 0 0 1 0"/>
					</filter>
				</defs>
				<mask maskUnits="userSpaceOnUse" x="0" y="0.2" width="49.8" height="49.8" id="mask-2">
					<g filter="url(#Adobe_OpacityMaskFilter)">
						<path id="path-1" fill="#FFFFFF" d="M0,0.2h49.8V50H0"/>
					</g>
				</mask>
				<path id="Fill-1_1_" sketch:type="MSShapeGroup" mask="url(#mask-2)" fill="#3793D2" d="M3.3,0.2h43.2c1.8,0,3.3,1.5,3.3,3.3
					v43.2c0,1.8-1.5,3.3-3.3,3.3H3.3C1.5,50,0,48.5,0,46.7V3.5C0,1.7,1.5,0.2,3.3,0.2"/>
			</g>
			<path id="Stroke-4" sketch:type="MSShapeGroup" fill="none" stroke="#FFFFFF" stroke-width="1.598" d="M28.4,25.1
				c0,1.9-1.6,3.5-3.5,3.5s-3.5-1.6-3.5-3.5c0-1.9,1.6-3.5,3.5-3.5S28.4,23.2,28.4,25.1L28.4,25.1z"/>
			<path id="Stroke-6" sketch:type="MSShapeGroup" fill="none" stroke="#FFFFFF" stroke-width="1.598" stroke-linecap="round" d="
				M12.3,20v-5.5c0-1.1,0.9-2,2-2h5.6"/>
			<path id="Stroke-8" sketch:type="MSShapeGroup" fill="none" stroke="#FFFFFF" stroke-width="1.598" stroke-linecap="round" d="
				M19.8,37.7h-5.6c-1.1,0-2-0.9-2-2V30"/>
			<path id="Stroke-10" sketch:type="MSShapeGroup" fill="none" stroke="#FFFFFF" stroke-width="1.598" stroke-linecap="round" d="
				M37.5,29.9v5.8c0,1.3-0.9,2-2,2h-5.7"/>
			<path id="Stroke-12" sketch:type="MSShapeGroup" fill="none" stroke="#FFFFFF" stroke-width="1.598" stroke-linecap="round" d="
				M29.8,12.5h5.7c1.1,0,2,0.9,2,1.8V20"/>
		</g>
		<g id="Page-1_1_" transform="translate(164.000000, 174.000000)" sketch:type="MSLayerGroup">
			<g id="Group-3_1_">
				<g id="Clip-2_1_">
				</g>
				<defs>
					<filter id="Adobe_OpacityMaskFilter_1_" filterUnits="userSpaceOnUse" x="0" y="0.7" width="49.3" height="49.3">
						<feColorMatrix  type="matrix" values="1 0 0 0 0  0 1 0 0 0  0 0 1 0 0  0 0 0 1 0"/>
					</filter>
				</defs>
				<mask maskUnits="userSpaceOnUse" x="0" y="0.7" width="49.3" height="49.3" id="mask-4">
					<g filter="url(#Adobe_OpacityMaskFilter_1_)">
						<path id="path-3" fill="#FFFFFF" d="M0,0.7h49.3V50H0"/>
					</g>
				</mask>
				<path id="Fill-1_2_" sketch:type="MSShapeGroup" mask="url(#mask-4)" fill="#06BFD1" d="M3.3,0.7H46c1.8,0,3.3,1.5,3.3,3.3v42.7
					c0,1.8-1.5,3.3-3.3,3.3H3.3C1.5,50,0,48.5,0,46.7V4C0,2.2,1.5,0.7,3.3,0.7"/>
			</g>
			<path id="Fill-4" sketch:type="MSShapeGroup" fill="#FFFFFF" d="M35.2,18.5c4.2,0,7.6,3.4,7.6,7.6c0,4.2-3.4,7.6-7.6,7.6
				c-4.2,0-7.6-3.4-7.6-7.6C27.6,22,31,18.5,35.2,18.5 M14.6,18.5c4.2,0,7.6,3.4,7.6,7.6c0,4.2-3.4,7.6-7.6,7.6
				c-4.2,0-7.6-3.4-7.6-7.6C7,22,10.4,18.5,14.6,18.5 M14.6,34.8c4.7,0,8.6-3.9,8.6-8.6c0-0.6-0.1-1.2-0.2-1.8
				c0.3-0.1,1.1-0.4,2-0.4c0.6,0,1.4,0.3,1.7,0.5l0,0c-0.1,0.6-0.2,1.1-0.2,1.7c0,4.8,3.9,8.6,8.6,8.6c4.4,0,8-3.3,8.5-7.5H45
				c0.6,0,0.6-0.7,0.6-1.6c0-0.9,0-1.6-0.6-1.6h-1.5c-0.9-3.8-4.3-6.6-8.4-6.6c-3.4,0-6.3,1.9-7.7,4.8C27,22,26,21.7,25.1,21.7
				c-1.3,0-2.3,0.3-2.8,0.5c-1.4-2.8-4.3-4.7-7.7-4.7c-4.1,0-7.5,2.8-8.4,6.6H4.7c-0.6,0-0.5,0.7-0.5,1.6c0,0.9,0,1.6,0.5,1.6H6
				C6.6,31.5,10.2,34.8,14.6,34.8"/>
		</g>
		<g id="Page-1_2_" transform="translate(243.000000, 174.000000)" sketch:type="MSLayerGroup">
			<g id="Group-3_2_">
				<g id="Clip-2_2_">
				</g>
				<defs>
					<filter id="Adobe_OpacityMaskFilter_2_" filterUnits="userSpaceOnUse" x="0" y="0.1" width="49.9" height="49.9">
						<feColorMatrix  type="matrix" values="1 0 0 0 0  0 1 0 0 0  0 0 1 0 0  0 0 0 1 0"/>
					</filter>
				</defs>
				<mask maskUnits="userSpaceOnUse" x="0" y="0.1" width="49.9" height="49.9" id="mask-6">
					<g filter="url(#Adobe_OpacityMaskFilter_2_)">
						<path id="path-5" fill="#FFFFFF" d="M0,0.1h49.9V50H0"/>
					</g>
				</mask>
				<path id="Fill-1_3_" sketch:type="MSShapeGroup" mask="url(#mask-6)" fill="#6FC96F" d="M3.3,0.1h43.2c1.8,0,3.3,1.5,3.3,3.3
					v43.2c0,1.8-1.5,3.3-3.3,3.3H3.3C1.5,50,0,48.5,0,46.7V3.4C0,1.6,1.5,0.1,3.3,0.1"/>
			</g>
			<path id="Fill-4_1_" sketch:type="MSShapeGroup" fill="#FFFFFF" d="M14.3,16.2c-0.7,0-1.2-0.6-1.2-1.2c0-0.7,0.6-1.2,1.2-1.2
				s1.2,0.6,1.2,1.2C15.6,15.6,15,16.2,14.3,16.2 M30.7,16.4c-0.8,0-1.5-0.7-1.5-1.5c0-0.8,0.7-1.5,1.5-1.5c0.8,0,1.5,0.7,1.5,1.5
				C32.2,15.8,31.5,16.4,30.7,16.4 M14.3,21.8c-0.8,0-1.5-0.7-1.5-1.5c0-0.8,0.7-1.5,1.5-1.5c0.8,0,1.5,0.7,1.5,1.5
				C15.8,21.2,15.2,21.8,14.3,21.8 M14.3,32.8c-0.8,0-1.5-0.7-1.5-1.5c0-0.8,0.7-1.5,1.5-1.5c0.8,0,1.5,0.7,1.5,1.5
				C15.8,32.2,15.2,32.8,14.3,32.8 M19.7,38.2c-0.8,0-1.5-0.7-1.5-1.5c0-0.8,0.7-1.5,1.5-1.5c0.8,0,1.5,0.7,1.5,1.5
				C21.2,37.5,20.5,38.2,19.7,38.2 M30.7,38.2c-0.8,0-1.5-0.7-1.5-1.5c0-0.8,0.7-1.5,1.5-1.5c0.8,0,1.5,0.7,1.5,1.5
				C32.2,37.5,31.5,38.2,30.7,38.2 M36.1,21.8c-0.8,0-1.5-0.7-1.5-1.5c0-0.8,0.7-1.5,1.5-1.5c0.8,0,1.5,0.7,1.5,1.5
				C37.6,21.2,36.9,21.8,36.1,21.8 M36.1,32.8c-0.8,0-1.5-0.7-1.5-1.5c0-0.8,0.7-1.5,1.5-1.5c0.8,0,1.5,0.7,1.5,1.5
				C37.6,32.2,36.9,32.8,36.1,32.8 M25.2,16.5c-0.9,0-1.6-0.7-1.6-1.6c0-0.9,0.7-1.6,1.6-1.6c0.9,0,1.6,0.7,1.6,1.6
				C26.8,15.8,26.1,16.5,25.2,16.5 M25.2,38.3c-0.9,0-1.6-0.7-1.6-1.6c0-0.9,0.7-1.6,1.6-1.6c0.9,0,1.6,0.7,1.6,1.6
				C26.8,37.6,26.1,38.3,25.2,38.3 M36.1,27.4c-0.9,0-1.6-0.7-1.6-1.6c0-0.9,0.7-1.6,1.6-1.6c0.9,0,1.6,0.7,1.6,1.6
				C37.7,26.7,37,27.4,36.1,27.4 M14.3,27.4c-0.9,0-1.6-0.7-1.6-1.6c0-0.9,0.7-1.6,1.6-1.6c0.9,0,1.6,0.7,1.6,1.6
				C15.9,26.7,15.2,27.4,14.3,27.4 M19.7,33.1c-1,0-1.8-0.8-1.8-1.8c0-1,0.8-1.8,1.8-1.8c1,0,1.8,0.8,1.8,1.8
				C21.5,32.3,20.7,33.1,19.7,33.1 M30.7,22.1c-1,0-1.8-0.8-1.8-1.8c0-1,0.8-1.8,1.8-1.8c1,0,1.8,0.8,1.8,1.8
				C32.5,21.3,31.7,22.1,30.7,22.1 M25.2,22.3c-1.1,0-2-0.9-2-2c0-1.1,0.9-2,2-2c1.1,0,2,0.9,2,2C27.2,21.4,26.3,22.3,25.2,22.3
				 M19.7,27.8c-1.1,0-2-0.9-2-2c0-1.1,0.9-2,2-2c1.1,0,2,0.9,2,2C21.7,26.9,20.8,27.8,19.7,27.8 M25.2,33.3c-1.1,0-2-0.9-2-2
				s0.9-2,2-2c1.1,0,2,0.9,2,2S26.3,33.3,25.2,33.3 M30.7,27.8c-1.1,0-2-0.9-2-2c0-1.1,0.9-2,2-2c1.1,0,2,0.9,2,2
				C32.7,26.9,31.8,27.8,30.7,27.8 M25.2,28C24,28,23,27,23,25.8c0-1.2,1-2.2,2.2-2.2s2.2,1,2.2,2.2C27.4,27,26.4,28,25.2,28
				 M19.7,43c-0.6,0-1.1-0.5-1.1-1.1c0-0.6,0.5-1.1,1.1-1.1c0.6,0,1.1,0.5,1.1,1.1C20.8,42.5,20.3,43,19.7,43 M30.7,43
				c-0.6,0-1.1-0.5-1.1-1.1c0-0.6,0.5-1.1,1.1-1.1c0.6,0,1.1,0.5,1.1,1.1C31.8,42.5,31.3,43,30.7,43 M36.1,38
				c-0.7,0-1.2-0.6-1.2-1.2c0-0.7,0.6-1.2,1.2-1.2s1.2,0.6,1.2,1.2C37.4,37.4,36.8,38,36.1,38 M14.3,38c-0.7,0-1.2-0.6-1.2-1.2
				c0-0.7,0.6-1.2,1.2-1.2s1.2,0.6,1.2,1.2C15.6,37.4,15,38,14.3,38 M9.2,27C8.5,27,8,26.5,8,25.8c0-0.7,0.5-1.2,1.2-1.2
				c0.7,0,1.2,0.5,1.2,1.2C10.4,26.5,9.9,27,9.2,27 M19.7,16.4c-0.8,0-1.5-0.7-1.5-1.5c0-0.8,0.7-1.5,1.5-1.5c0.8,0,1.5,0.7,1.5,1.5
				C21.2,15.8,20.5,16.4,19.7,16.4 M41.3,27c-0.7,0-1.2-0.5-1.2-1.2c0-0.7,0.5-1.2,1.2-1.2c0.7,0,1.2,0.5,1.2,1.2
				C42.4,26.5,41.9,27,41.3,27 M9.2,21.4c-0.6,0-1.1-0.5-1.1-1.1c0-0.6,0.5-1.1,1.1-1.1c0.6,0,1.1,0.5,1.1,1.1
				C10.3,21,9.8,21.4,9.2,21.4 M9.2,32.4c-0.6,0-1.1-0.5-1.1-1.1s0.5-1.1,1.1-1.1c0.6,0,1.1,0.5,1.1,1.1S9.8,32.4,9.2,32.4
				 M19.7,10.9c-0.6,0-1.1-0.5-1.1-1.1c0-0.6,0.5-1.1,1.1-1.1c0.6,0,1.1,0.5,1.1,1.1C20.8,10.4,20.3,10.9,19.7,10.9 M30.7,10.9
				c-0.6,0-1.1-0.5-1.1-1.1c0-0.6,0.5-1.1,1.1-1.1c0.6,0,1.1,0.5,1.1,1.1C31.8,10.4,31.3,10.9,30.7,10.9 M19.7,22.1
				c-1,0-1.8-0.8-1.8-1.8c0-1,0.8-1.8,1.8-1.8c1,0,1.8,0.8,1.8,1.8C21.5,21.3,20.7,22.1,19.7,22.1 M41.3,21.4
				c-0.6,0-1.1-0.5-1.1-1.1c0-0.6,0.5-1.1,1.1-1.1c0.6,0,1.1,0.5,1.1,1.1C42.4,21,41.9,21.4,41.3,21.4 M41.3,32.4
				c-0.6,0-1.1-0.5-1.1-1.1s0.5-1.1,1.1-1.1c0.6,0,1.1,0.5,1.1,1.1S41.9,32.4,41.3,32.4 M25.2,11c-0.7,0-1.2-0.5-1.2-1.2
				c0-0.7,0.5-1.2,1.2-1.2c0.7,0,1.2,0.5,1.2,1.2C26.4,10.5,25.9,11,25.2,11 M25.2,43.1c-0.7,0-1.2-0.5-1.2-1.2
				c0-0.7,0.5-1.2,1.2-1.2c0.7,0,1.2,0.5,1.2,1.2C26.4,42.5,25.9,43.1,25.2,43.1 M36.1,16.2c-0.7,0-1.2-0.6-1.2-1.2
				c0-0.7,0.6-1.2,1.2-1.2s1.2,0.6,1.2,1.2C37.4,15.6,36.8,16.2,36.1,16.2 M30.7,33.1c-1,0-1.8-0.8-1.8-1.8c0-1,0.8-1.8,1.8-1.8
				c1,0,1.8,0.8,1.8,1.8C32.5,32.3,31.7,33.1,30.7,33.1"/>
		</g>
		<g id="Page-1_3_" transform="translate(322.000000, 174.000000)" sketch:type="MSLayerGroup">
			<g id="Group-3_3_">
				<g id="Clip-2_3_">
				</g>
				<defs>
					<filter id="Adobe_OpacityMaskFilter_3_" filterUnits="userSpaceOnUse" x="0" y="0.2" width="49.8" height="49.8">
						<feColorMatrix  type="matrix" values="1 0 0 0 0  0 1 0 0 0  0 0 1 0 0  0 0 0 1 0"/>
					</filter>
				</defs>
				<mask maskUnits="userSpaceOnUse" x="0" y="0.2" width="49.8" height="49.8" id="mask-8">
					<g filter="url(#Adobe_OpacityMaskFilter_3_)">
						<path id="path-7" fill="#FFFFFF" d="M0,0.2h49.8V50H0"/>
					</g>
				</mask>
				<path id="Fill-1_4_" sketch:type="MSShapeGroup" mask="url(#mask-8)" fill="#F4AA34" d="M3.3,0.2h43.2c1.8,0,3.3,1.5,3.3,3.3
					v43.2c0,1.8-1.5,3.3-3.3,3.3H3.3C1.5,50,0,48.5,0,46.7V3.5C0,1.7,1.5,0.2,3.3,0.2"/>
			</g>
			<path id="Stroke-4_1_" sketch:type="MSShapeGroup" fill="none" stroke="#FFFFFF" stroke-width="1.598" d="M21.9,23.6l6.5,4.6
				L21.9,23.6z M38.6,18.8l-5.5,8.3L38.6,18.8z M17.5,24.4L12,32.3L17.5,24.4z M13.3,35.1c0-1.9-1.5-3.5-3.4-3.5
				c-1.9,0-3.4,1.6-3.4,3.5c0,1.9,1.5,3.5,3.4,3.5C11.8,38.6,13.3,37,13.3,35.1L13.3,35.1z M22.6,21.4c0-1.9-1.5-3.5-3.4-3.5
				c-1.9,0-3.4,1.6-3.4,3.5c0,1.9,1.5,3.5,3.4,3.5C21.1,24.9,22.6,23.4,22.6,21.4L22.6,21.4z M43.9,15.7c0-1.9-1.5-3.5-3.4-3.5
				c-1.9,0-3.4,1.6-3.4,3.5c0,1.9,1.5,3.5,3.4,3.5C42.4,19.2,43.9,17.6,43.9,15.7L43.9,15.7z M34.7,29.9c0-1.9-1.5-3.5-3.4-3.5
				c-1.9,0-3.4,1.6-3.4,3.5s1.5,3.5,3.4,3.5C33.2,33.4,34.7,31.9,34.7,29.9L34.7,29.9z"/>
		</g>
		<g id="Page-1_4_" transform="translate(401.000000, 174.000000)" sketch:type="MSLayerGroup">
			<g id="Group-3_4_">
				<g id="Clip-2_4_">
				</g>
				<defs>
					<filter id="Adobe_OpacityMaskFilter_4_" filterUnits="userSpaceOnUse" x="0" y="0.2" width="49.8" height="49.8">
						<feColorMatrix  type="matrix" values="1 0 0 0 0  0 1 0 0 0  0 0 1 0 0  0 0 0 1 0"/>
					</filter>
				</defs>
				<mask maskUnits="userSpaceOnUse" x="0" y="0.2" width="49.8" height="49.8" id="mask-10">
					<g filter="url(#Adobe_OpacityMaskFilter_4_)">
						<path id="path-9" fill="#FFFFFF" d="M0,0.2h49.8V50H0"/>
					</g>
				</mask>
				<path id="Fill-1_5_" sketch:type="MSShapeGroup" mask="url(#mask-10)" fill="#DD6666" d="M3.3,0.2h43.2c1.8,0,3.3,1.5,3.3,3.3
					v43.2c0,1.8-1.5,3.3-3.3,3.3H3.3C1.5,50,0,48.5,0,46.7V3.5C0,1.7,1.5,0.2,3.3,0.2"/>
			</g>
			<path id="Stroke-4_2_" sketch:type="MSShapeGroup" fill="none" stroke="#FFFFFF" stroke-width="1.6" d="M14.3,10.2
				c2,0,3.6,1.6,3.6,3.6s-1.6,3.6-3.6,3.6s-3.6-1.6-3.6-3.6S12.3,10.2,14.3,10.2L14.3,10.2z"/>
			<path id="Fill-6" sketch:type="MSShapeGroup" fill="#FFFFFF" d="M15.8,13.7c0,0.8-0.7,1.5-1.5,1.5c-0.8,0-1.5-0.7-1.5-1.5
				s0.7-1.5,1.5-1.5C15.1,12.3,15.8,12.9,15.8,13.7"/>
			<path id="Stroke-8_1_" sketch:type="MSShapeGroup" fill="none" stroke="#FFFFFF" stroke-width="1.6" stroke-linecap="round" d="
				M39,13.7H18"/>
			<path id="Stroke-10_1_" sketch:type="MSShapeGroup" fill="none" stroke="#FFFFFF" stroke-width="1.6" d="M14.3,21.6
				c2,0,3.6,1.6,3.6,3.6s-1.6,3.6-3.6,3.6s-3.6-1.6-3.6-3.6S12.3,21.6,14.3,21.6L14.3,21.6z"/>
			<path id="Stroke-12_1_" sketch:type="MSShapeGroup" fill="none" stroke="#FFFFFF" stroke-width="1.6" stroke-linecap="round" d="
				M39,25.1H18"/>
			<path id="Stroke-14" sketch:type="MSShapeGroup" fill="none" stroke="#FFFFFF" stroke-width="1.6" d="M14.3,32.9
				c2,0,3.6,1.6,3.6,3.6S16.3,40,14.3,40s-3.6-1.6-3.6-3.6S12.3,32.9,14.3,32.9L14.3,32.9z"/>
			<path id="Stroke-16" sketch:type="MSShapeGroup" fill="none" stroke="#FFFFFF" stroke-width="1.6" stroke-linecap="round" d="
				M39,36.5H18"/>
		</g>
		<g id="Page-1_5_" transform="translate(482.000000, 174.000000)" sketch:type="MSLayerGroup">
			<g id="Group-3_5_">
				<g id="Clip-2_5_">
				</g>
				<defs>
					<filter id="Adobe_OpacityMaskFilter_5_" filterUnits="userSpaceOnUse" x="0" y="0.2" width="49.8" height="49.8">
						<feColorMatrix  type="matrix" values="1 0 0 0 0  0 1 0 0 0  0 0 1 0 0  0 0 0 1 0"/>
					</filter>
				</defs>
				<mask maskUnits="userSpaceOnUse" x="0" y="0.2" width="49.8" height="49.8" id="mask-12">
					<g filter="url(#Adobe_OpacityMaskFilter_5_)">
						<path id="path-11" fill="#FFFFFF" d="M0,0.2h49.8V50H0"/>
					</g>
				</mask>
				<path id="Fill-1_6_" sketch:type="MSShapeGroup" mask="url(#mask-12)" fill="#883C8A" d="M3.3,0.2h43.2c1.8,0,3.3,1.5,3.3,3.3
					v43.2c0,1.8-1.5,3.3-3.3,3.3H3.3C1.5,50,0,48.5,0,46.7V3.5C0,1.7,1.5,0.2,3.3,0.2"/>
			</g>
			<path id="Stroke-4_3_" sketch:type="MSShapeGroup" fill="none" stroke="#FFFFFF" stroke-width="1.6" d="M40,38.4c0,0.5-0.5,1-1,1
				H10.7c-0.6,0-1-0.5-1-1v-9.7c0-0.5,0.4-1,1-1H39c0.5,0,1,0.5,1,1V38.4L40,38.4z"/>
			
				<path id="Stroke-6_1_" sketch:type="MSShapeGroup" fill="none" stroke="#FFFFFF" stroke-width="1.442" stroke-linecap="round" d="
				M29,31.3h-8.4"/>
			<path id="Stroke-8_2_" sketch:type="MSShapeGroup" fill="none" stroke="#FFFFFF" stroke-width="1.6" d="M40,21.5c0,0.5-0.5,1-1,1
				H10.7c-0.6,0-1-0.5-1-1v-9.7c0-0.6,0.4-1,1-1H39c0.5,0,1,0.4,1,1V21.5L40,21.5z"/>
			
				<path id="Stroke-10_2_" sketch:type="MSShapeGroup" fill="none" stroke="#FFFFFF" stroke-width="1.442" stroke-linecap="round" d="
				M29,14.3h-8.4"/>
		</g>
		<path id="diagnostics" sketch:type="MSShapeGroup" fill="#999999" d="M81.6,250.1c1,0,2-0.6,2.3-1.5c0,0.7,0,1.1,0,1.4h0.8
			c-0.1-1.1-0.1-1.3-0.1-2.6v-7.5h-0.9v3.4c0,0.4,0,0.8,0,1.2c-0.5-0.9-1.3-1.4-2.3-1.4c-1.6,0-2.7,1.4-2.7,3.5
			C78.7,248.7,79.8,250.1,81.6,250.1L81.6,250.1z M81.6,249.4c-1.2,0-2-1.1-2-2.9c0-1.7,0.8-2.8,1.9-2.8c1.3,0,2.2,1.2,2.2,2.8
			C83.7,248.3,82.9,249.4,81.6,249.4L81.6,249.4z M86.6,241.3h1v-1.1h-1V241.3z M86.7,250h0.9v-6.8h-0.9V250z M89,248.1
			c0,1.2,0.9,2,2.2,2c1.1,0,1.8-0.4,2.3-1.3c0,0.3,0,0.5,0,0.7c0,0.2,0,0.3,0,0.5h0.8c0-0.8-0.1-1.7-0.1-2.8l0-1.2
			c0-1-0.1-1.4-0.2-1.8c-0.3-0.8-1.1-1.2-2.1-1.2c-0.7,0-1.4,0.2-2.1,0.5l0,0.9c0.7-0.4,1.2-0.6,1.9-0.6c0.9,0,1.5,0.4,1.7,1.2
			c0.1,0.3,0.1,0.3,0.1,0.8c-0.3,0-0.4,0-0.6,0C90.3,245.9,89,246.7,89,248.1L89,248.1z M89.9,248.2c0-1,1-1.6,3-1.6h0.3
			c0.1,0,0.2,0,0.2,0v0.3c0,0.6,0,0.9-0.2,1.3c-0.3,0.8-1,1.3-1.9,1.3C90.5,249.4,89.9,248.9,89.9,248.2L89.9,248.2z M96.5,251.6
			l-0.1,0.9c0.8,0.3,1.4,0.4,2.1,0.4c0.9,0,1.7-0.3,2.3-0.8c0.6-0.6,0.9-1.3,0.9-2.5v-0.9l0-5.5h-0.8c0,0.6,0,0.8,0.1,1.3
			c-0.2-0.3-0.3-0.5-0.4-0.7c-0.4-0.5-1.1-0.7-1.8-0.7c-1.7,0-2.8,1.3-2.8,3.4c0,2.1,1.2,3.6,2.8,3.6c1,0,1.9-0.7,2.2-1.6
			c0,0.2,0,0.3,0,0.6c0,1.3-0.1,1.6-0.3,2c-0.3,0.7-1.1,1.1-2.1,1.1C97.8,252.2,97.2,252,96.5,251.6L96.5,251.6z M98.7,249.3
			c-1.2,0-2-1.1-2-2.8c0-1.6,0.8-2.7,2-2.7c0.6,0,1.2,0.4,1.6,0.9c0.3,0.5,0.5,1.1,0.5,1.8C100.8,248.2,99.9,249.3,98.7,249.3
			L98.7,249.3z M103.9,250h0.9v-3.4c0-0.9,0.1-1.3,0.3-1.7c0.4-0.7,1-1.1,1.7-1.1c0.6,0,1.1,0.3,1.4,0.9c0.2,0.4,0.2,0.7,0.2,1.9
			v3.4h0.9v-3.4c0-1.2,0-1.6-0.2-2.1c-0.3-0.9-1.1-1.4-2.1-1.4c-1,0-1.9,0.5-2.3,1.5c0-0.2,0-0.3,0-0.6c0-0.2,0-0.4,0-0.8h-0.8
			c0,0.5,0.1,1.5,0.1,1.7c0,0,0,0.1,0,0.8V250z M110.8,246.6c0,2.1,1.3,3.5,3.2,3.5c1.9,0,3.2-1.4,3.2-3.5c0-2.2-1.2-3.6-3.1-3.6
			C112.1,243.1,110.8,244.4,110.8,246.6L110.8,246.6z M111.7,246.6c0-1.7,0.9-2.9,2.3-2.9c1.3,0,2.3,1.2,2.3,2.9
			c0,1.6-1,2.8-2.3,2.8C112.7,249.5,111.7,248.3,111.7,246.6L111.7,246.6z M118.2,249.8c0.6,0.3,1.2,0.4,1.8,0.4
			c1.5,0,2.5-0.8,2.5-1.9c0-0.9-0.5-1.4-1.7-2l-0.7-0.3c-0.8-0.4-1.1-0.6-1.1-1.1c0-0.6,0.6-1,1.4-1c0.5,0,1,0.1,1.6,0.4l0.1-0.8
			c-0.7-0.2-1.1-0.3-1.7-0.3c-1.4,0-2.3,0.7-2.3,1.7c0,0.5,0.2,1,0.6,1.3c0.2,0.2,0.4,0.3,1,0.5l0.7,0.3c0.7,0.4,1.1,0.7,1.1,1.2
			c0,0.7-0.7,1.2-1.7,1.2c-0.5,0-1-0.1-1.7-0.5L118.2,249.8z M124.9,249.3c0.3,0.5,0.8,0.8,1.5,0.8c0.3,0,0.5,0,0.8-0.1l0-0.7
			c-0.3,0.1-0.4,0.1-0.6,0.1c-0.4,0-0.7-0.2-0.9-0.5c-0.1-0.3-0.2-0.4-0.2-1.5v-3.4h1.6v-0.7h-1.6v-2l-0.9,0.3v1.7h-1.4v0.7h1.4v3.4
			C124.7,248.8,124.7,248.9,124.9,249.3L124.9,249.3z M128.6,241.3h1v-1.1h-1V241.3z M128.7,250h0.9v-6.8h-0.9V250z M131.1,246.6
			c0,2,1.4,3.5,3.3,3.5c0.7,0,1.3-0.1,1.8-0.3l-0.1-0.8c-0.5,0.3-1,0.4-1.6,0.4c-1.4,0-2.5-1.2-2.5-2.7c0-1.5,1.1-2.6,2.6-2.6
			c0.5,0,1,0.1,1.5,0.3l0-0.9c-0.5-0.2-1-0.3-1.6-0.3C132.5,243.2,131.1,244.6,131.1,246.6L131.1,246.6z M137,249.8
			c0.6,0.3,1.2,0.4,1.8,0.4c1.5,0,2.5-0.8,2.5-1.9c0-0.9-0.5-1.4-1.7-2l-0.7-0.3c-0.8-0.4-1.1-0.6-1.1-1.1c0-0.6,0.6-1,1.4-1
			c0.5,0,1,0.1,1.6,0.4l0.1-0.8c-0.7-0.2-1.1-0.3-1.7-0.3c-1.4,0-2.3,0.7-2.3,1.7c0,0.5,0.2,1,0.6,1.3c0.2,0.2,0.4,0.3,1,0.5
			l0.7,0.3c0.7,0.4,1.1,0.7,1.1,1.2c0,0.7-0.7,1.2-1.7,1.2c-0.5,0-1-0.1-1.7-0.5L137,249.8z"/>
		<path id="eleot" sketch:type="MSShapeGroup" fill="#999999" d="M176.3,246.8h4.8c0-0.8,0-1.2-0.2-1.7c-0.3-1.3-1.2-2-2.5-2
			c-1.8,0-3,1.4-3,3.5c0,2.3,1.2,3.6,3.2,3.6c0.7,0,1.3-0.1,1.9-0.4l0-0.9c-0.6,0.3-1.2,0.5-1.9,0.5
			C177.3,249.4,176.4,248.4,176.3,246.8L176.3,246.8z M176.3,246.1c0.1-0.5,0.1-0.8,0.3-1.1c0.4-0.8,1-1.2,1.8-1.2
			c0.7,0,1.3,0.4,1.6,1.1c0.2,0.4,0.2,0.7,0.3,1.3H176.3z M182.5,250h0.9v-10.1h-0.9V250z M185.8,246.8h4.8c0-0.8,0-1.2-0.2-1.7
			c-0.3-1.3-1.2-2-2.5-2c-1.8,0-3,1.4-3,3.5c0,2.3,1.2,3.6,3.2,3.6c0.7,0,1.3-0.1,1.9-0.4l0-0.9c-0.6,0.3-1.2,0.5-1.9,0.5
			C186.8,249.4,185.9,248.4,185.8,246.8L185.8,246.8z M185.9,246.1c0.1-0.5,0.1-0.8,0.3-1.1c0.4-0.8,1-1.2,1.8-1.2
			c0.7,0,1.3,0.4,1.6,1.1c0.2,0.4,0.2,0.7,0.3,1.3H185.9z M191.9,246.6c0,2.1,1.3,3.5,3.2,3.5c1.9,0,3.2-1.4,3.2-3.5
			c0-2.2-1.2-3.6-3.1-3.6C193.1,243.1,191.9,244.4,191.9,246.6L191.9,246.6z M192.7,246.6c0-1.7,0.9-2.9,2.3-2.9
			c1.3,0,2.3,1.2,2.3,2.9c0,1.6-1,2.8-2.3,2.8S192.7,248.3,192.7,246.6L192.7,246.6z M200.4,249.3c0.3,0.5,0.8,0.8,1.5,0.8
			c0.3,0,0.5,0,0.8-0.1l0-0.7c-0.3,0.1-0.4,0.1-0.6,0.1c-0.4,0-0.7-0.2-0.9-0.5c-0.1-0.3-0.2-0.4-0.2-1.5v-3.4h1.6v-0.7h-1.6v-2
			l-0.9,0.3v1.7h-1.4v0.7h1.4v3.4C200.2,248.8,200.2,248.9,200.4,249.3L200.4,249.3z"/>
		<path id="surveys" sketch:type="MSShapeGroup" fill="#999999" d="M247.6,249.8c0.6,0.3,1.2,0.4,1.8,0.4c1.5,0,2.5-0.8,2.5-1.9
			c0-0.9-0.5-1.4-1.7-2l-0.7-0.3c-0.8-0.4-1.1-0.6-1.1-1.1c0-0.6,0.6-1,1.4-1c0.5,0,1,0.1,1.6,0.4l0.1-0.8c-0.7-0.2-1.1-0.3-1.7-0.3
			c-1.4,0-2.3,0.7-2.3,1.7c0,0.5,0.2,1,0.6,1.3c0.2,0.2,0.4,0.3,1,0.5l0.7,0.3c0.7,0.4,1.1,0.7,1.1,1.2c0,0.7-0.7,1.2-1.7,1.2
			c-0.5,0-1-0.1-1.7-0.5L247.6,249.8z M253.7,248.8c0.4,0.8,1.1,1.3,2,1.3c1.1,0,1.9-0.5,2.3-1.5c0,0.3,0,0.4,0,0.6
			c0,0.3,0,0.4,0,0.8h0.8c-0.1-0.8-0.1-1.1-0.1-2.5l0-4.3h-0.9l0,3.3c0,0,0,0.1,0,0.3c0,0.7,0,0.8-0.2,1.1c-0.3,0.9-1,1.4-1.8,1.4
			c-0.6,0-1.1-0.3-1.3-0.8c-0.2-0.4-0.3-0.8-0.3-2l0-3.4h-0.9l0,3.4C253.4,248,253.5,248.3,253.7,248.8L253.7,248.8z M260.9,250h0.9
			v-3.1c0-1,0-1.3,0.2-1.7c0.3-0.8,0.9-1.2,1.6-1.2c0.2,0,0.3,0,0.5,0.1v-0.9c-0.3-0.1-0.4-0.1-0.6-0.1c-0.5,0-1,0.3-1.4,0.8
			c-0.2,0.2-0.2,0.4-0.4,0.9c0-0.4,0-0.6,0-0.9c0-0.1,0-0.3,0-0.7h-0.8c0,0.7,0.1,2.3,0.1,2.7V250z M267.3,250h1l2.3-6.8h-0.9
			l-0.8,2.5c-0.7,2.2-1,3.1-1.1,3.8c-0.1-0.8-0.3-1.2-1.1-3.8l-0.8-2.5h-0.9L267.3,250z M272.1,246.8h4.8c0-0.8,0-1.2-0.2-1.7
			c-0.3-1.3-1.2-2-2.5-2c-1.8,0-3,1.4-3,3.5c0,2.3,1.2,3.6,3.2,3.6c0.7,0,1.3-0.1,1.9-0.4l0-0.9c-0.6,0.3-1.2,0.5-1.9,0.5
			C273.1,249.4,272.2,248.4,272.1,246.8L272.1,246.8z M272.1,246.1c0.1-0.5,0.1-0.8,0.3-1.1c0.4-0.8,1-1.2,1.8-1.2
			c0.7,0,1.3,0.4,1.6,1.1c0.2,0.4,0.2,0.7,0.3,1.3H272.1z M278.1,252l-0.1,0.7c0.4,0.1,0.5,0.1,0.7,0.1c0.5,0,1-0.2,1.3-0.6
			c0.2-0.3,0.4-0.6,0.7-1.5l2.6-7.6h-0.9L281,248c-0.3,0.8-0.3,1-0.4,1.2c0-0.3-0.2-0.7-0.4-1.2l-1.6-4.8h-0.9l2.4,7l-0.2,0.5
			c-0.4,1.1-0.7,1.4-1.3,1.4C278.5,252.1,278.4,252.1,278.1,252L278.1,252z M284.2,249.8c0.6,0.3,1.2,0.4,1.8,0.4
			c1.5,0,2.5-0.8,2.5-1.9c0-0.9-0.5-1.4-1.7-2l-0.7-0.3c-0.8-0.4-1-0.6-1-1.1c0-0.6,0.6-1,1.4-1c0.5,0,1,0.1,1.6,0.4l0.1-0.8
			c-0.7-0.2-1.1-0.3-1.7-0.3c-1.4,0-2.3,0.7-2.3,1.7c0,0.5,0.2,1,0.6,1.3c0.2,0.2,0.4,0.3,1,0.5l0.7,0.3c0.7,0.4,1.1,0.7,1.1,1.2
			c0,0.7-0.7,1.2-1.7,1.2c-0.5,0-1-0.1-1.7-0.5L284.2,249.8z"/>
		<path id="analytics" sketch:type="MSShapeGroup" fill="#999999" d="M323.7,248.1c0,1.2,0.9,2,2.2,2c1.1,0,1.8-0.4,2.3-1.3
			c0,0.3,0,0.5,0,0.7c0,0.2,0,0.3,0,0.5h0.8c0-0.8-0.1-1.7-0.1-2.8l0-1.2c0-1-0.1-1.4-0.2-1.8c-0.3-0.8-1.1-1.2-2.1-1.2
			c-0.7,0-1.4,0.2-2.1,0.5l0,0.9c0.7-0.4,1.2-0.6,1.9-0.6c0.9,0,1.5,0.4,1.7,1.2c0.1,0.3,0.1,0.3,0.1,0.8c-0.3,0-0.4,0-0.6,0
			C325,245.9,323.7,246.7,323.7,248.1L323.7,248.1z M324.6,248.2c0-1,1-1.6,3-1.6h0.3c0.1,0,0.2,0,0.2,0v0.3c0,0.6,0,0.9-0.2,1.3
			c-0.3,0.8-1,1.3-1.9,1.3C325.2,249.4,324.6,248.9,324.6,248.2L324.6,248.2z M331.1,250h0.9v-3.4c0-0.9,0.1-1.3,0.3-1.7
			c0.4-0.7,1-1.1,1.7-1.1c0.6,0,1.1,0.3,1.4,0.9c0.2,0.4,0.2,0.7,0.2,1.9v3.4h0.9v-3.4c0-1.2,0-1.6-0.2-2.1
			c-0.3-0.9-1.1-1.4-2.1-1.4s-1.9,0.5-2.3,1.5c0-0.2,0-0.3,0-0.6c0-0.2,0-0.4,0-0.8H331c0,0.5,0.1,1.5,0.1,1.7c0,0,0,0.1,0,0.8V250z
			 M337.9,248.1c0,1.2,0.9,2,2.2,2c1.1,0,1.8-0.4,2.3-1.3c0,0.3,0,0.5,0,0.7c0,0.2,0,0.3,0,0.5h0.8c0-0.8-0.1-1.7-0.1-2.8l0-1.2
			c0-1-0.1-1.4-0.2-1.8c-0.3-0.8-1.1-1.2-2.1-1.2c-0.7,0-1.4,0.2-2.1,0.5l0,0.9c0.7-0.4,1.2-0.6,1.9-0.6c0.9,0,1.5,0.4,1.7,1.2
			c0.1,0.3,0.1,0.3,0.1,0.8c-0.3,0-0.4,0-0.6,0C339.2,245.9,337.9,246.7,337.9,248.1L337.9,248.1z M338.7,248.2c0-1,1-1.6,3-1.6h0.3
			c0.1,0,0.2,0,0.2,0v0.3c0,0.6,0,0.9-0.2,1.3c-0.3,0.8-1,1.3-1.9,1.3C339.3,249.4,338.7,248.9,338.7,248.2L338.7,248.2z M345.2,250
			h0.9v-10.1h-0.9V250z M347.7,252l-0.1,0.7c0.4,0.1,0.5,0.1,0.7,0.1c0.5,0,1-0.2,1.3-0.6c0.2-0.3,0.4-0.6,0.7-1.5l2.6-7.6H352
			l-1.6,4.7c-0.3,0.8-0.3,1-0.4,1.2c0-0.3-0.2-0.7-0.4-1.2l-1.6-4.8h-0.9l2.5,7l-0.2,0.5c-0.4,1.1-0.7,1.4-1.3,1.4
			C348,252.1,347.9,252.1,347.7,252L347.7,252z M355,249.3c0.3,0.5,0.8,0.8,1.5,0.8c0.3,0,0.5,0,0.8-0.1l0-0.7
			c-0.3,0.1-0.4,0.1-0.6,0.1c-0.4,0-0.7-0.2-0.9-0.5c-0.1-0.3-0.2-0.4-0.2-1.5v-3.4h1.6v-0.7h-1.6v-2l-0.9,0.3v1.7h-1.4v0.7h1.4v3.4
			C354.8,248.8,354.8,248.9,355,249.3L355,249.3z M358.7,241.3h1v-1.1h-1V241.3z M358.7,250h0.9v-6.8h-0.9V250z M361.1,246.6
			c0,2,1.4,3.5,3.3,3.5c0.7,0,1.3-0.1,1.8-0.3l-0.1-0.8c-0.5,0.3-1,0.4-1.6,0.4c-1.4,0-2.5-1.2-2.5-2.7c0-1.5,1-2.6,2.6-2.6
			c0.5,0,1,0.1,1.5,0.3l0-0.9c-0.5-0.2-1-0.3-1.6-0.3C362.5,243.2,361.1,244.6,361.1,246.6L361.1,246.6z M367.1,249.8
			c0.6,0.3,1.2,0.4,1.8,0.4c1.5,0,2.5-0.8,2.5-1.9c0-0.9-0.5-1.4-1.7-2l-0.7-0.3c-0.8-0.4-1-0.6-1-1.1c0-0.6,0.6-1,1.4-1
			c0.5,0,1,0.1,1.6,0.4l0.1-0.8c-0.7-0.2-1.1-0.3-1.7-0.3c-1.4,0-2.3,0.7-2.3,1.7c0,0.5,0.2,1,0.6,1.3c0.2,0.2,0.4,0.3,1,0.5
			l0.7,0.3c0.7,0.4,1.1,0.7,1.1,1.2c0,0.7-0.7,1.2-1.7,1.2c-0.5,0-1-0.1-1.7-0.5L367.1,249.8z"/>
		<path id="strategies" sketch:type="MSShapeGroup" fill="#999999" d="M399.6,249.8c0.6,0.3,1.2,0.4,1.8,0.4c1.5,0,2.5-0.8,2.5-1.9
			c0-0.9-0.5-1.4-1.7-2l-0.7-0.3c-0.8-0.4-1-0.6-1-1.1c0-0.6,0.6-1,1.4-1c0.5,0,1,0.1,1.6,0.4l0.1-0.8c-0.7-0.2-1.1-0.3-1.7-0.3
			c-1.4,0-2.3,0.7-2.3,1.7c0,0.5,0.2,1,0.6,1.3c0.2,0.2,0.4,0.3,1,0.5l0.7,0.3c0.7,0.4,1.1,0.7,1.1,1.2c0,0.7-0.7,1.2-1.7,1.2
			c-0.5,0-1-0.1-1.7-0.5L399.6,249.8z M406.3,249.3c0.3,0.5,0.8,0.8,1.5,0.8c0.3,0,0.5,0,0.8-0.1l0-0.7c-0.3,0.1-0.4,0.1-0.6,0.1
			c-0.4,0-0.7-0.2-0.9-0.5c-0.1-0.3-0.2-0.4-0.2-1.5v-3.4h1.6v-0.7H407v-2l-0.9,0.3v1.7h-1.4v0.7h1.4v3.4
			C406.1,248.8,406.1,248.9,406.3,249.3L406.3,249.3z M410.2,250h0.9v-3.1c0-1,0-1.3,0.2-1.7c0.3-0.8,0.9-1.2,1.6-1.2
			c0.2,0,0.3,0,0.5,0.1v-0.9c-0.3-0.1-0.4-0.1-0.6-0.1c-0.5,0-1.1,0.3-1.4,0.8c-0.2,0.2-0.2,0.4-0.4,0.9c0-0.4,0-0.6,0-0.9
			c0-0.1,0-0.3,0-0.7h-0.8c0,0.7,0.1,2.3,0.1,2.7V250z M414,248.1c0,1.2,0.9,2,2.2,2c1.1,0,1.8-0.4,2.3-1.3c0,0.3,0,0.5,0,0.7
			c0,0.2,0,0.3,0,0.5h0.8c0-0.8-0.1-1.7-0.1-2.8l0-1.2c0-1-0.1-1.4-0.2-1.8c-0.3-0.8-1.1-1.2-2.1-1.2c-0.7,0-1.4,0.2-2.1,0.5l0,0.9
			c0.7-0.4,1.2-0.6,1.9-0.6c0.9,0,1.5,0.4,1.7,1.2c0.1,0.3,0.1,0.3,0.1,0.8c-0.3,0-0.4,0-0.6,0C415.3,245.9,414,246.7,414,248.1
			L414,248.1z M414.9,248.2c0-1,1-1.6,3-1.6h0.3c0.1,0,0.2,0,0.2,0v0.3c0,0.6,0,0.9-0.2,1.3c-0.3,0.8-1,1.3-1.9,1.3
			C415.5,249.4,414.9,248.9,414.9,248.2L414.9,248.2z M421.9,249.3c0.3,0.5,0.8,0.8,1.5,0.8c0.3,0,0.5,0,0.8-0.1l0-0.7
			c-0.3,0.1-0.4,0.1-0.6,0.1c-0.4,0-0.7-0.2-0.9-0.5c-0.1-0.3-0.2-0.4-0.2-1.5v-3.4h1.6v-0.7h-1.6v-2l-0.9,0.3v1.7h-1.4v0.7h1.4v3.4
			C421.7,248.8,421.7,248.9,421.9,249.3L421.9,249.3z M425.8,246.8h4.8c0-0.8,0-1.2-0.2-1.7c-0.3-1.3-1.2-2-2.5-2
			c-1.8,0-3,1.4-3,3.5c0,2.3,1.2,3.6,3.2,3.6c0.7,0,1.3-0.1,1.9-0.4l0-0.9c-0.6,0.3-1.2,0.5-1.9,0.5
			C426.8,249.4,425.9,248.4,425.8,246.8L425.8,246.8z M425.8,246.1c0.1-0.5,0.1-0.8,0.3-1.1c0.4-0.8,1-1.2,1.8-1.2
			c0.7,0,1.3,0.4,1.6,1.1c0.2,0.4,0.2,0.7,0.3,1.3H425.8z M432.5,251.6l-0.1,0.9c0.8,0.3,1.4,0.4,2.1,0.4c0.9,0,1.7-0.3,2.3-0.8
			c0.6-0.6,0.9-1.3,0.9-2.5v-0.9l0-5.5h-0.8c0,0.6,0,0.8,0.1,1.3c-0.2-0.3-0.3-0.5-0.4-0.7c-0.4-0.5-1.1-0.7-1.8-0.7
			c-1.7,0-2.8,1.3-2.8,3.4c0,2.1,1.2,3.6,2.8,3.6c1,0,1.9-0.7,2.2-1.6c0,0.2,0,0.3,0,0.6c0,1.3-0.1,1.6-0.3,2
			c-0.3,0.7-1.1,1.1-2.1,1.1C433.9,252.2,433.3,252,432.5,251.6L432.5,251.6z M434.7,249.3c-1.2,0-2-1.1-2-2.8c0-1.6,0.8-2.7,2-2.7
			c0.6,0,1.2,0.4,1.6,0.9c0.3,0.5,0.5,1.1,0.5,1.8C436.9,248.2,436,249.3,434.7,249.3L434.7,249.3z M439.8,241.3h1v-1.1h-1V241.3z
			 M439.9,250h0.9v-6.8h-0.9V250z M443.2,246.8h4.8c0-0.8,0-1.2-0.2-1.7c-0.3-1.3-1.2-2-2.5-2c-1.8,0-3,1.4-3,3.5
			c0,2.3,1.2,3.6,3.2,3.6c0.7,0,1.3-0.1,1.9-0.4l0-0.9c-0.6,0.3-1.2,0.5-1.9,0.5C444.2,249.4,443.3,248.4,443.2,246.8L443.2,246.8z
			 M443.2,246.1c0.1-0.5,0.1-0.8,0.3-1.1c0.4-0.8,1-1.2,1.8-1.2c0.7,0,1.3,0.4,1.6,1.1c0.2,0.4,0.2,0.7,0.3,1.3H443.2z M449.1,249.8
			c0.6,0.3,1.2,0.4,1.8,0.4c1.5,0,2.5-0.8,2.5-1.9c0-0.9-0.5-1.4-1.7-2l-0.7-0.3c-0.8-0.4-1.1-0.6-1.1-1.1c0-0.6,0.6-1,1.4-1
			c0.5,0,1,0.1,1.6,0.4l0.1-0.8c-0.7-0.2-1.1-0.3-1.7-0.3c-1.4,0-2.3,0.7-2.3,1.7c0,0.5,0.2,1,0.6,1.3c0.2,0.2,0.4,0.3,1,0.5
			l0.7,0.3c0.7,0.4,1.1,0.7,1.1,1.2c0,0.7-0.7,1.2-1.7,1.2c-0.5,0-1-0.1-1.7-0.5L449.1,249.8z"/>
		<path id="workspaces" sketch:type="MSShapeGroup" fill="#999999" d="M476.6,250h1l1.2-3.9c0.4-1.2,0.5-1.6,0.6-2.4
			c0.1,0.7,0.2,1,0.7,2.4l1.3,3.9h1l2.2-6.8h-0.9l-1.1,3.4c-0.2,0.5-0.3,1-0.4,1.5l-0.1,0.4c-0.1,0.5-0.2,0.7-0.2,1
			c-0.1-0.3-0.1-0.5-0.2-0.9c0-0.2-0.2-0.8-0.6-2l-1.1-3.4h-1l-1.1,3.4c-0.6,1.8-0.7,2.2-0.8,2.9c-0.1-0.8-0.2-1.1-0.8-2.9l-1.1-3.4
			h-0.9L476.6,250z M485.2,246.6c0,2.1,1.3,3.5,3.2,3.5c1.9,0,3.1-1.4,3.1-3.5c0-2.2-1.2-3.6-3.1-3.6
			C486.5,243.1,485.2,244.4,485.2,246.6L485.2,246.6z M486.1,246.6c0-1.7,0.9-2.9,2.3-2.9c1.3,0,2.3,1.2,2.3,2.9
			c0,1.6-1,2.8-2.3,2.8S486.1,248.3,486.1,246.6L486.1,246.6z M493.2,250h0.9v-3.1c0-1,0-1.3,0.2-1.7c0.3-0.8,0.9-1.2,1.6-1.2
			c0.2,0,0.3,0,0.5,0.1v-0.9c-0.3-0.1-0.4-0.1-0.6-0.1c-0.5,0-1,0.3-1.4,0.8c-0.2,0.2-0.2,0.4-0.4,0.9c0-0.4,0-0.6,0-0.9
			c0-0.1,0-0.3,0-0.7h-0.8c0,0.7,0.1,2.3,0.1,2.7V250z M497.6,250h0.9v-3.5l3.4,3.5h1.2l-3.8-3.8l3.4-3h-1.1l-3.1,2.7v-6h-0.9V250z
			 M503.8,249.8c0.6,0.3,1.2,0.4,1.8,0.4c1.5,0,2.5-0.8,2.5-1.9c0-0.9-0.5-1.4-1.7-2l-0.7-0.3c-0.8-0.4-1.1-0.6-1.1-1.1
			c0-0.6,0.6-1,1.4-1c0.5,0,1,0.1,1.6,0.4l0.1-0.8c-0.7-0.2-1.1-0.3-1.7-0.3c-1.4,0-2.3,0.7-2.3,1.7c0,0.5,0.2,1,0.6,1.3
			c0.2,0.2,0.4,0.3,1,0.5l0.7,0.3c0.7,0.4,1.1,0.7,1.1,1.2c0,0.7-0.7,1.2-1.7,1.2c-0.5,0-1-0.1-1.7-0.5L503.8,249.8z M510.4,250.6
			c0-1,0-1.6-0.1-1.8c0.4,0.9,1.2,1.3,2.2,1.3c0.8,0,1.4-0.3,1.9-0.8c0.6-0.6,0.9-1.7,0.9-2.8c0-2.1-1.1-3.4-2.8-3.4
			c-1.1,0-2,0.6-2.3,1.5v-0.2l0-0.5c0-0.2,0-0.2,0-0.7h-0.8l0,0.9c0,0.6,0,0.7,0,1.4l0,7.4h0.8V250.6z M510.3,246.6
			c0-0.8,0.2-1.4,0.5-1.9c0.4-0.6,1-0.9,1.7-0.9c1.2,0,1.9,1.1,1.9,2.8c0,1.7-0.8,2.8-2,2.8C511.2,249.4,510.3,248.3,510.3,246.6
			L510.3,246.6z M516.5,248.1c0,1.2,0.9,2,2.2,2c1.1,0,1.8-0.4,2.3-1.3c0,0.3,0,0.5,0,0.7c0,0.2,0,0.3,0,0.5h0.8
			c0-0.8-0.1-1.7-0.1-2.8l0-1.2c0-1-0.1-1.4-0.2-1.8c-0.3-0.8-1.1-1.2-2.1-1.2c-0.7,0-1.4,0.2-2.1,0.5l0,0.9
			c0.7-0.4,1.2-0.6,1.9-0.6c0.9,0,1.5,0.4,1.7,1.2c0.1,0.3,0.1,0.3,0.1,0.8c-0.3,0-0.4,0-0.6,0C517.8,245.9,516.5,246.7,516.5,248.1
			L516.5,248.1z M517.4,248.2c0-1,1-1.6,3-1.6h0.3c0.1,0,0.2,0,0.2,0v0.3c0,0.6,0,0.9-0.2,1.3c-0.3,0.8-1,1.3-1.9,1.3
			C518,249.4,517.4,248.9,517.4,248.2L517.4,248.2z M523.3,246.6c0,2,1.4,3.5,3.3,3.5c0.7,0,1.3-0.1,1.8-0.3l-0.1-0.8
			c-0.5,0.3-1,0.4-1.6,0.4c-1.4,0-2.5-1.2-2.5-2.7c0-1.5,1-2.6,2.6-2.6c0.5,0,1,0.1,1.5,0.3l0-0.9c-0.5-0.2-1-0.3-1.6-0.3
			C524.7,243.2,523.3,244.6,523.3,246.6L523.3,246.6z M530.1,246.8h4.8c0-0.8,0-1.2-0.2-1.7c-0.3-1.3-1.2-2-2.5-2
			c-1.8,0-3,1.4-3,3.5c0,2.3,1.2,3.6,3.2,3.6c0.7,0,1.3-0.1,1.9-0.4l0-0.9c-0.6,0.3-1.2,0.5-1.9,0.5
			C531.1,249.4,530.2,248.4,530.1,246.8L530.1,246.8z M530.2,246.1c0.1-0.5,0.1-0.8,0.3-1.1c0.4-0.8,1-1.2,1.8-1.2
			c0.7,0,1.3,0.4,1.6,1.1c0.2,0.4,0.2,0.7,0.3,1.3H530.2z M536,249.8c0.6,0.3,1.2,0.4,1.8,0.4c1.5,0,2.5-0.8,2.5-1.9
			c0-0.9-0.5-1.4-1.7-2l-0.7-0.3c-0.8-0.4-1.1-0.6-1.1-1.1c0-0.6,0.6-1,1.4-1c0.5,0,1,0.1,1.6,0.4l0.1-0.8c-0.7-0.2-1.1-0.3-1.7-0.3
			c-1.4,0-2.3,0.7-2.3,1.7c0,0.5,0.2,1,0.6,1.3c0.2,0.2,0.4,0.3,1,0.5l0.7,0.3c0.7,0.4,1.1,0.7,1.1,1.2c0,0.7-0.7,1.2-1.7,1.2
			c-0.5,0-1-0.1-1.7-0.5L536,249.8z"/>
	</g>
</g>
</svg>
