<?xml version="1.0" encoding="utf-8"?>
<svg width="20px" height="20px" viewBox="0 0 20 20" version="1.1" xmlns:xlink="http://www.w3.org/1999/xlink" xmlns="http://www.w3.org/2000/svg">
  <defs>
    <path d="M20 0L20 0L20 20L0 20L0 0L20 0Z" id="path_1" />
    <clipPath id="clip_1">
      <use xlink:href="#path_1" clip-rule="evenodd" fill-rule="evenodd" />
    </clipPath>
  </defs>
  <g id="favicon" clip-path="url(#clip_1)">
    <path d="M20 0L20 0L20 20L0 20L0 0L20 0Z" id="favicon" fill="#FFFFFF" stroke="none" />
    <path d="M-0.000244141 0L19.9998 0L19.9998 20L-0.000244141 20L-0.000244141 0Z" id="Rectangle-7" fill="#272727" fill-rule="evenodd" stroke="none" />
    <path d="M4.56193 6L4.56193 6.858L8.56796 6.858L4 13.9758L9.97581 13.9758L9.97581 13.1178L5.68579 13.1178L10.2356 6L4.56193 6ZM12.0363 11.6859L15.9819 11.6859C15.9879 11.6255 16 11.42 16 11.3536C16 9.83694 15.0574 8.87018 13.6073 8.87018C12.0181 8.87018 11.0997 9.988 11.0997 11.4381C11.0997 13.0091 12.0725 14.1209 13.6737 14.1209C14.8338 14.1209 15.4381 13.7463 15.855 13.136L15.3535 12.5378C15.1662 12.8581 14.6647 13.3656 13.7341 13.3656C12.6103 13.3656 12.0484 12.6043 12.0363 11.6859L12.0363 11.6859ZM15.0514 10.9305L12.0726 10.9305C12.1209 10.3806 12.5137 9.61932 13.6194 9.61932C14.6708 9.61932 15.0273 10.4169 15.0514 10.9305L15.0514 10.9305Z" id="Path" fill="#FFFFFF" stroke="none" />
  </g>
</svg>