<?xml version="1.0" encoding="utf-8"?>
<!-- Generator: Adobe Illustrator 18.0.0, SVG Export Plug-In . SVG Version: 6.00 Build 0)  -->
<!DOCTYPE svg PUBLIC "-//W3C//DTD SVG 1.1//EN" "http://www.w3.org/Graphics/SVG/1.1/DTD/svg11.dtd">
<svg version="1.1" id="Layer_1" xmlns="http://www.w3.org/2000/svg" xmlns:xlink="http://www.w3.org/1999/xlink" x="0px" y="0px"
	 viewBox="213.4 286.1 511.2 427.8" enable-background="new 213.4 286.1 511.2 427.8" xml:space="preserve">
<g>
	<path fill="#FFFFFF" d="M516.3,578.5c0-11.7,3.1-22.3,9.4-31.9s14.4-14.4,24.4-14.4c9.2,0,16.9,4.8,23.1,14.4s9.4,20.2,9.4,31.9
		s-2.9,22.1-8.8,31.3S560,623.5,550,623.5s-18.1-4.6-24.4-13.8S516.3,590.2,516.3,578.5z"/>
	<path fill="#FFFFFF" d="M665,413.5c3.3-1.7,3.8-15.4,1.3-41.3c-2.5-25-8.3-48.8-17.5-71.3l-12.5,2.5c-27.5,4.2-62.1,20.8-103.8,50
		c-15-4.2-36.3-6.3-63.8-6.3c-25.8,0-47.1,2.1-63.8,6.3c-44.2-30.8-82.9-48.3-116.3-52.5c-9.2,22.5-15,46.3-17.5,71.3
		c-2.5,25.8-2.1,39.6,1.3,41.3c-25,27.5-37.5,60.4-37.5,98.8c0,123.3,63.3,185,190,185c2.5,0,9.8,0.2,21.9,0.6
		c12.1,0.4,19.4,0.6,21.9,0.6s10-0.2,22.5-0.6s19.6-0.6,21.3-0.6c126.7,0,190-61.7,190-185C702.5,473.9,690,441,665,413.5z
		 M597.5,654.8c-27.5,13.3-70,20-127.5,20h-2.5c-57.5,0-100-6.7-127.5-20c-28.3-13.3-42.5-41.3-42.5-83.8c0-25.8,8.8-46.3,26.3-61.3
		c7.5-6.7,17.3-11.3,29.4-13.8c12.1-2.5,23.5-3.5,34.4-3.1c10.8,0.4,25,1.3,42.5,2.5s30.8,1.9,40,1.9c1.7,0,18.5-0.8,50.6-2.5
		c32.1-1.7,51.9-2.1,59.4-1.3c17.5,3.3,32.1,12.5,43.8,27.5s17.5,31.7,17.5,50C641.3,612.7,626.7,640.6,597.5,654.8z"/>
	<path fill="#FFFFFF" d="M388.8,532.3c9.2,0,16.9,4.8,23.1,14.4s9.4,20.2,9.4,31.9s-3.1,22.1-9.4,31.3s-14,13.8-23.1,13.8
		c-10,0-18.1-4.6-24.4-13.8s-9.4-19.6-9.4-31.3s3.1-22.3,9.4-31.9S378.8,532.3,388.8,532.3z"/>
</g>
</svg>
