<?xml version="1.0" encoding="utf-8"?>
<svg viewBox="0 0 20 20" version="1.1" xmlns:xlink="http://www.w3.org/1999/xlink" xmlns="http://www.w3.org/2000/svg">
  <defs>
    <path d="M20 0L20 0L20 20L0 20L0 0L20 0Z" id="path_1" />
    <clipPath id="clip_1">
      <use xlink:href="#path_1" clip-rule="evenodd" fill-rule="evenodd" />
    </clipPath>
  </defs>
  <g id="icon--agency-light" clip-path="url(#clip_1)">
    <path d="M20 0L20 0L20 20L0 20L0 0L20 0Z" id="icon--agency-light" fill="none" stroke="none" />
    <path d="M1 2L19 2L19 18L1 18L1 2Z" id="Rectangle-Copy" fill="#323232" fill-rule="evenodd" stroke="none" />
    <path d="M5.6707 10.3709L8.4963 10.3709C8.50063 10.3276 8.50928 10.1805 8.50928 10.1329C8.50928 9.04681 7.83425 8.35447 6.79575 8.35447C5.65772 8.35447 5 9.15498 5 10.1935C5 11.3185 5.69666 12.1147 6.84335 12.1147C7.67415 12.1147 8.10686 11.8464 8.40543 11.4094L8.04628 10.981C7.91214 11.2104 7.55299 11.5738 6.88662 11.5738C6.08178 11.5738 5.67936 11.0286 5.6707 10.3709L5.6707 10.3709ZM7.82997 9.82986L5.69671 9.82986C5.73132 9.43609 6.01259 8.89087 6.80445 8.89087C7.55736 8.89087 7.81266 9.46205 7.82997 9.82986L7.82997 9.82986ZM9.05456 8.45823L9.05456 9.05105L9.75988 9.05105L9.75988 11.0805C9.75988 11.7988 10.1666 12.1146 10.7032 12.1146C11.1575 12.1146 11.4604 11.9329 11.5124 11.881L11.2311 11.3747C11.2095 11.4007 11.084 11.5175 10.859 11.5175C10.608 11.5175 10.4392 11.3358 10.4392 10.8987L10.4392 9.05105L11.3696 9.05105L11.3696 8.45823L10.4392 8.45823L10.4392 7L9.75988 7L9.75988 8.45823L9.05456 8.45823ZM13.836 11.5392C13.2605 11.5392 12.659 11.0589 12.659 10.2324C12.659 9.41028 13.2605 8.92997 13.836 8.92997C14.3077 8.92997 14.5716 9.17229 14.6452 9.2372L14.987 8.73525C14.8832 8.64438 14.4418 8.35447 13.81 8.35447C12.8667 8.35447 11.9927 9.01219 11.9927 10.2324C11.9927 11.4527 12.8667 12.1147 13.81 12.1147C14.4505 12.1147 14.9135 11.8464 15 11.7686L14.6625 11.2709C14.5889 11.3358 14.299 11.5392 13.836 11.5392L13.836 11.5392Z" id="Path" fill="#FFFFFF" stroke="none" />
  </g>
</svg>
