<?xml version="1.0" encoding="utf-8"?>
<!-- Generator: Adobe Illustrator 18.0.0, SVG Export Plug-In . SVG Version: 6.00 Build 0)  -->
<!DOCTYPE svg PUBLIC "-//W3C//DTD SVG 1.1//EN" "http://www.w3.org/Graphics/SVG/1.1/DTD/svg11.dtd">
<svg version="1.1" id="Layer_1" xmlns="http://www.w3.org/2000/svg" xmlns:xlink="http://www.w3.org/1999/xlink" x="0px" y="0px"
	 viewBox="0 0 800 800" enable-background="new 0 0 800 800" xml:space="preserve">
<path fill="#FFFFFF" d="M227.4,684.7v-423H86.9v422.7h140.5V684.7z M157.2,204c49.1,0,79.5-32.4,79.5-73.1
	c-1-41.4-30.5-73.1-78.6-73.1c-48.1,0-79.5,31.7-79.5,73.1c0,40.5,30.5,73.1,77.6,73.1H157.2L157.2,204z"/>
<path fill="#FFFFFF" d="M305.3,684.7h140.5v-236c0-12.6,1-25.2,4.5-34.3c10.2-25.2,33.3-51.4,72.2-51.4c51,0,71.2,38.8,71.2,95.7
	v226.3h140.5V442.2c0-129.8-69.3-190.3-161.7-190.3c-75.7,0-109.1,42.4-127.7,71.2h1v-61.2H305.3
	C307.2,301.5,305.3,684.7,305.3,684.7L305.3,684.7z"/>
</svg>
