<?xml version="1.0" encoding="utf-8"?>
<!-- Generator: Adobe Illustrator 18.0.0, SVG Export Plug-In . SVG Version: 6.00 Build 0)  -->
<!DOCTYPE svg PUBLIC "-//W3C//DTD SVG 1.1//EN" "http://www.w3.org/Graphics/SVG/1.1/DTD/svg11.dtd">
<svg version="1.1" id="Layer_1" xmlns="http://www.w3.org/2000/svg" xmlns:xlink="http://www.w3.org/1999/xlink" x="0px" y="0px"
	 viewBox="0 0 800 800" enable-background="new 0 0 800 800" xml:space="preserve">
<g>
	<path fill="#FFFFFF" d="M355.8,379.5c23.9,13.7,65.1,13.7,89.6,0.6L754,207.6c-11.9-35.2-45.4-60.9-84.8-60.9H130.7
		c-38.2,0-70.4,23.9-83.6,57.3L355.8,379.5z"/>
	<path fill="#FFFFFF" d="M459.1,444.8c-16.7,9-37.6,13.7-58.5,13.7c-21.5,0-43-4.8-59.7-14.3L41.2,273.4c0,0.6,0,0.6,0,1.2v292.5
		c0,49.6,40.6,89.6,89.6,89.6h537.9c49.6,0,89.6-40.6,89.6-89.6V277.6L459.1,444.8z"/>
</g>
</svg>
