<?xml version="1.0" encoding="UTF-8" standalone="no"?>
<svg width="140px" height="140px" viewBox="0 0 140 140" version="1.1" xmlns="http://www.w3.org/2000/svg" xmlns:xlink="http://www.w3.org/1999/xlink" xmlns:sketch="http://www.bohemiancoding.com/sketch/ns">
    <!-- Generator: Sketch 3.5.1 (25234) - http://www.bohemiancoding.com/sketch -->
    <title>Group</title>
    <desc>Created with Sketch.</desc>
    <defs></defs>
    <g id="Page-3" stroke="none" stroke-width="1" fill="none" fill-rule="evenodd" sketch:type="MSPage">
        <g id="Artboard-17-Copy-7" sketch:type="MSArtboardGroup" transform="translate(-38.000000, -36.000000)">
            <g id="Group" sketch:type="MSLayerGroup" transform="translate(38.000000, 36.000000)">
                <rect id="Rectangle-278" fill="#FFFFFF" sketch:type="MSShapeGroup" x="0" y="1" width="140" height="138"></rect>
                <path d="M0,3 L0,3 L3,0 L3,140 L0,137 L140,137 L137,140 L137,0 L140,3 L0,3 Z M0,0 L140,0 L140,140 L0,140 L0,0 L0,0 Z" id="Shape" fill="#777777" sketch:type="MSShapeGroup"></path>
                <path d="M39.4597632,87.2906839 L71.4931579,55.2572892 L69.3707313,55.2561818 L101.337337,87.2895752 L103.46087,85.1704697 L71.4942642,53.1370763 L70.4336052,52.0742012 L69.3718376,53.1359689 L37.3384429,85.1693635 L39.4597632,87.2906839 L39.4597632,87.2906839 Z" id="Shape" fill="#777777" sketch:type="MSShapeGroup"></path>
            </g>
        </g>
    </g>
</svg>