<?xml version="1.0" encoding="UTF-8" standalone="no"?>
<svg width="354px" height="354px" viewBox="0 0 354 354" version="1.1" xmlns="http://www.w3.org/2000/svg" xmlns:xlink="http://www.w3.org/1999/xlink" xmlns:sketch="http://www.bohemiancoding.com/sketch/ns">
    <!-- Generator: Sketch 3.5.1 (25234) - http://www.bohemiancoding.com/sketch -->
    <title>Group 3</title>
    <desc>Created with Sketch.</desc>
    <defs></defs>
    <g id="Page-4" stroke="none" stroke-width="1" fill="none" fill-rule="evenodd" sketch:type="MSPage">
        <g id="Group-3" sketch:type="MSLayerGroup">
            <rect id="Rectangle-241" fill="#FF8E00" sketch:type="MSShapeGroup" x="0" y="0" width="353.456603" height="353.456603"></rect>
            <path d="M184.761469,131.305353 C184.761469,138.469918 178.896385,144.239243 171.698553,144.239243 C164.462254,144.239243 158.635376,138.469918 158.635376,131.305353 C158.635376,124.178357 164.462254,118.371464 171.698553,118.371464 C178.896385,118.371464 184.761469,124.178357 184.761469,131.305353 Z M199.728751,104.11755 C199.728751,109.245868 195.53948,113.39376 190.360004,113.39376 C185.218471,113.39376 180.990994,109.245868 180.990994,104.11755 C180.990994,98.9892329 185.218471,94.8413406 190.360004,94.8413406 C195.53948,94.8413406 199.728751,98.9892329 199.728751,104.11755 Z M178.249009,94.0116844 C178.249009,97.3677747 175.506841,100.045029 172.193421,100.045029 C168.804112,100.045029 166.099888,97.3677747 166.099888,94.0116844 C166.099888,90.6934224 168.804112,88.0159086 172.193421,88.0159086 C175.506841,88.0159086 178.249009,90.6934224 178.249009,94.0116844 Z M156.35034,153.591057 C152.275163,153.591057 148.999948,156.87175 148.999948,160.906416 C148.999948,164.941342 152.275163,168.222035 156.35034,168.222035 C158.5592,168.222035 160.425518,169.730242 160.958564,171.879715 L160.958564,194.052245 L173.297929,194.090073 C174.592994,194.090073 175.621144,195.108067 175.621144,196.390082 C175.621144,197.672355 174.592994,198.690349 173.297929,198.690349 L160.958564,198.690349 L160.958564,213.849109 L173.297929,213.849109 C174.592994,213.849109 175.621144,214.867362 175.621144,216.149377 C175.621144,217.431392 174.592994,218.449645 173.297929,218.449645 L160.958564,218.449645 L160.958564,233.608405 L173.297929,233.608405 C174.592994,233.608405 175.621144,234.626658 175.621144,235.908672 C175.621144,237.190687 174.592994,238.20894 173.297929,238.20894 L160.958564,238.20894 L160.958564,250.087007 C160.958564,258.873004 168.118452,266 176.915948,266 C185.713705,266 192.873593,258.873004 192.873593,250.087007 L192.873593,171.879715 C193.406639,169.730242 195.272957,168.222035 197.519761,168.222035 C201.518789,168.222035 204.832209,164.941342 204.832209,160.906416 C204.832209,156.87175 201.518789,153.591057 197.519761,153.591057 L156.35034,153.591057 Z" id="Fill-1" fill="#FFFFFF" sketch:type="MSShapeGroup"></path>
        </g>
    </g>
</svg>