<?xml version="1.0" encoding="UTF-8" standalone="no"?>
<svg width="354px" height="354px" viewBox="0 0 354 354" version="1.1" xmlns="http://www.w3.org/2000/svg" xmlns:xlink="http://www.w3.org/1999/xlink" xmlns:sketch="http://www.bohemiancoding.com/sketch/ns">
    <!-- Generator: Sketch 3.5.1 (25234) - http://www.bohemiancoding.com/sketch -->
    <title>Group 14 Copy 2</title>
    <desc>Created with Sketch.</desc>
    <defs></defs>
    <g id="Page-4" stroke="none" stroke-width="1" fill="none" fill-rule="evenodd" sketch:type="MSPage">
        <g id="Desktop-HD-Copy-11" sketch:type="MSArtboardGroup" transform="translate(-324.000000, -1343.000000)">
            <g id="Group-14-Copy-2" sketch:type="MSLayerGroup" transform="translate(324.000000, 1343.000000)">
                <rect id="Rectangle-241-Copy-2" fill="#777777" sketch:type="MSShapeGroup" x="0" y="0" width="353.456603" height="353.456603"></rect>
                <g id="Group-13-Copy" transform="translate(77.000000, 64.000000)" sketch:type="MSShapeGroup">
                    <g id="Stroke-1-_x2B_-e-Prove-_x2B_-Path-647-_x2B_-Group" transform="translate(1.631148, 0.000000)" fill="#FFFFFF">
                        <g id="Path-647-_x2B_-Group">
                            <path d="M110.265574,4.23913043 C104.067213,0.326086957 93.9540984,0.326086957 87.7557377,4.23913043 L11.0918033,49.8913043 C5.21967213,53.4782609 0,62.2826087 0,69.4565217 L0,157.173913 C0,164.347826 4.89344262,173.152174 11.4180328,176.73913 L84.8196721,219.456522 C91.0180328,223.043478 101.131148,223.043478 107.655738,219.782609 L184.319672,178.043478 C190.518033,174.456522 195.737705,165.978261 195.737705,158.804348 L195.737705,70.1086957 C195.737705,62.9347826 190.844262,54.1304348 184.645902,50.2173913 L110.265574,4.23913043 L110.265574,4.23913043 Z" id="Path-647"></path>
                        </g>
                    </g>
                    <g id="Group-Copy" transform="translate(11.112193, 15.499193)">
                        <g id="Group" transform="translate(2.772944, 0.000000)">
                            <path d="M137.995082,129.130435 C139.952459,127.826087 141.583607,124.891304 141.583607,122.608696 L141.583607,78.5869565 C141.583607,76.3043478 143.214754,73.3695652 145.172131,72.0652174 L169.313115,58.0434783 C171.270492,56.7391304 172.901639,57.7173913 172.901639,60.326087 L172.901639,141.847826 C172.901639,144.130435 171.270492,147.065217 169.313115,148.369565 L96.5639344,191.086957 C94.6065574,192.391304 92.9754098,191.413043 92.9754098,188.804348 L92.9754098,160.108696 C92.9754098,157.826087 94.6065574,154.891304 96.5639344,153.586957 L137.995082,129.130435" id="Fill-8-Copy" fill="#F4AA34"></path>
                            <path d="M88.7344262,37.826087 C86.7770492,36.5217391 83.1885246,36.5217391 81.2311475,37.826087 L39.4737705,61.9565217 C37.5163934,63.2608696 33.9278689,63.2608696 31.9704918,61.9565217 L7.8295082,47.9347826 C5.87213115,46.6304348 5.87213115,44.673913 7.8295082,43.6956522 L81.2311475,0.97826087 C83.1885246,-0.326086957 86.7770492,-0.326086957 88.7344262,0.97826087 L162.136066,43.6956522 C164.093443,45 164.093443,46.9565217 162.136066,47.9347826 L137.342623,62.2826087 C135.385246,63.5869565 131.796721,63.5869565 129.839344,62.2826087 L88.7344262,37.826087" id="Fill-9-Copy" fill="#3793D2"></path>
                            <path d="M82.8622951,48.9130435 C84.8196721,47.6086957 88.4081967,47.9347826 90.3655738,48.9130435 L122.336066,68.1521739 C124.293443,69.4565217 124.293443,71.4130435 122.336066,72.3913043 L89.7131148,90.6521739 C87.7557377,91.9565217 84.1672131,91.9565217 82.2098361,90.6521739 L49.2606557,71.7391304 C47.3032787,70.4347826 47.3032787,68.8043478 49.2606557,67.5 L82.8622951,48.9130435" id="Fill-10-Copy" fill="#DD6666"></path>
                            <path d="M92.9754098,105.978261 C92.9754098,103.695652 94.6065574,100.76087 96.5639344,99.4565217 L128.860656,80.5434783 C130.818033,79.2391304 132.44918,80.2173913 132.44918,82.826087 L132.44918,120.326087 C132.44918,122.608696 130.818033,125.543478 128.860656,126.847826 L96.5639344,145.76087 C94.6065574,146.73913 92.9754098,145.76087 92.9754098,143.478261 L92.9754098,105.978261" id="Fill-11-Copy" fill="#6FC96F"></path>
                            <path d="M35.2327869,129.130435 C33.2754098,127.826087 31.6442623,124.891304 31.6442623,122.608696 L31.6442623,78.5869565 C31.6442623,76.3043478 30.0131148,73.3695652 28.0557377,72.0652174 L3.9147541,58.0434783 C1.63114754,57.0652174 0,58.0434783 0,60.326087 L0,141.847826 C0,144.130435 1.63114754,147.065217 3.58852459,148.369565 L76.6639344,191.086957 C78.6213115,192.391304 80.252459,191.413043 80.252459,188.804348 L80.252459,160.108696 C80.252459,157.826087 78.6213115,154.891304 76.6639344,153.586957 L35.2327869,129.130435" id="Fill-12-Copy" fill="#06BFD1"></path>
                        </g>
                    </g>
                </g>
            </g>
        </g>
    </g>
</svg>